<svg width="78" height="57" viewBox="0 0 78 57" fill="none" xmlns="http://www.w3.org/2000/svg">
<path d="M0 0H78V57H0V0Z" fill="none"/>
<path d="M45.5 42.5V41.5H45V42.5" stroke="black" stroke-width="0.1"/>
<path d="M37 42.5V41.5H36.5V42.5" stroke="black" stroke-width="0.1"/>
<path d="M57.5 46V48H59V42" stroke="black" stroke-width="0.1"/>
<path d="M59.5 42V48H61V42" stroke="black" stroke-width="0.1"/>
<path d="M61.5 46V48H63V42" stroke="black" stroke-width="0.1"/>
<path d="M63.5 46V48H65V42" stroke="black" stroke-width="0.1"/>
<path d="M39.5 46V48H41V46" stroke="black" stroke-width="0.1"/>
<path d="M41.5 46V48H43V46" stroke="black" stroke-width="0.1"/>
<path d="M43.5 46V48H45V42" stroke="black" stroke-width="0.1"/>
<path d="M45.5 42V48H47V46" stroke="black" stroke-width="0.1"/>
<path fill-rule="evenodd" clip-rule="evenodd" d="M29.6224 10.0845C29.5346 10.0246 29.4053 9.98089 29.1895 10.0082L29.1582 10.0122H29.1267C28.4973 10.0122 28.1236 10.2196 27.872 10.5427C27.6006 10.8913 27.4253 11.4338 27.3443 12.1859V17.8289C27.5944 17.4428 27.8766 16.9893 28.163 16.507C28.6262 15.7271 29.095 14.8811 29.4542 14.1309C29.6338 13.7556 29.7831 13.4106 29.8902 13.1137C30 12.8094 30.0544 12.5854 30.0652 12.4428C30.1273 11.6212 30.0776 10.9314 29.9031 10.4873C29.8187 10.2724 29.7187 10.1501 29.6224 10.0845ZM27.3443 19.5686C27.4493 19.4451 27.5896 19.254 27.7473 19.0263C28.0862 18.5371 28.5508 17.8125 29.0228 17.0176C29.4947 16.2231 29.9796 15.3493 30.3561 14.5627C30.5443 14.1696 30.7085 13.792 30.8308 13.4531C30.9504 13.1216 31.0413 12.7966 31.0624 12.5181C31.1276 11.6552 31.0927 10.7807 30.8339 10.1216C30.7016 9.78497 30.4977 9.47094 30.1858 9.25827C29.8737 9.04549 29.5019 8.96723 29.0962 9.01227C28.219 9.01941 27.5451 9.33482 27.083 9.92833C26.6384 10.4993 26.4341 11.2722 26.347 12.1077L26.3443 12.1336V19.2535C26.3435 19.2592 26.3428 19.2651 26.3422 19.271C26.3395 19.2956 26.3352 19.3464 26.3443 19.4098V35.6582C25.4036 35.19 24.4705 35.085 23.8857 35.085C23.3805 35.085 22.7596 35.2281 22.305 35.7151C21.8409 36.2124 21.6449 36.9654 21.7842 37.9795C21.9355 39.08 22.5731 39.8796 23.473 40.4415C24.2576 40.9314 25.2537 41.2503 26.3443 41.4593V44.7222C26.1536 44.9066 25.9493 45.0894 25.7336 45.2674C24.5617 46.2345 23.1043 47.0189 21.707 47.2031C20.2299 47.3978 18.5184 47.4014 16.8922 47.0941C15.2653 46.7866 13.7575 46.1747 12.6454 45.1667C11.4369 44.0121 10.9387 42.4029 11.0059 40.6115C11.0734 38.8134 11.7122 36.8647 12.7362 35.1156L11.8732 34.6104C10.7838 36.4713 10.0815 38.5791 10.0066 40.5741C9.9316 42.5737 10.4889 44.4927 11.9597 45.8947L11.9686 45.9029C13.2613 47.0769 14.9639 47.7473 16.7065 48.0767C18.452 48.4065 20.2716 48.4009 21.8377 48.1945C23.4724 47.979 25.0895 47.0895 26.3443 46.0599V47.6988H27.3443V45.1343C27.5792 44.888 27.7931 44.6392 27.982 44.3931C28.4022 43.8456 28.7217 43.2813 28.8509 42.7664C28.9358 42.4281 29.0014 42.0635 29.0436 41.6846C29.9349 41.7183 31.0309 41.7476 32.2623 41.7732C35.0169 41.8304 38.4581 41.869 41.8209 41.8951C45.1841 41.9211 48.4704 41.9346 50.9158 41.9416C52.1386 41.9451 53.1512 41.947 53.8581 41.948L54.9653 41.9491C54.9654 41.9491 54.9663 41.9491 54.9664 41.9175C54.9665 41.8698 54.9666 41.7499 54.9666 41.4491C54.9668 40.9491 54.9667 40.9491 54.9665 40.9491L53.8595 40.948C53.153 40.947 52.1409 40.9451 50.9187 40.9416C48.4742 40.9346 45.1896 40.9211 41.8287 40.8951C38.4673 40.869 35.0312 40.8305 32.283 40.7734C31.0617 40.7481 29.9779 40.7191 29.098 40.686C29.0972 40.3706 29.0793 40.0526 29.0421 39.738C28.919 38.697 28.5785 37.6457 27.8982 36.8617C27.7209 36.6573 27.5352 36.4758 27.3443 36.3146V19.5686ZM26.3443 36.8124C25.4493 36.2143 24.4747 36.085 23.8857 36.085C23.5456 36.085 23.2366 36.1825 23.0361 36.3974C22.845 36.6021 22.6607 37.0123 22.7749 37.8434C22.8773 38.5881 23.2963 39.1523 24.0026 39.5932C24.6045 39.969 25.4017 40.2448 26.3443 40.4397V36.8124ZM27.3443 40.593V37.7785C27.7257 38.3352 27.9552 39.062 28.049 39.8555C28.0798 40.1159 28.0955 40.3796 28.0977 40.6418C27.7974 40.626 27.5452 40.6097 27.3443 40.593ZM27.3443 41.5962V43.5729C27.6323 43.1643 27.8107 42.8031 27.881 42.523C27.9501 42.2473 28.0049 41.9499 28.042 41.6403C27.7795 41.6265 27.5453 41.6118 27.3443 41.5962Z" fill="black"/>
<path fill-rule="evenodd" clip-rule="evenodd" d="M20.3486 26.0495C17.4565 28.608 14.4915 31.6021 12.758 35.1586L11.8591 34.7204C13.6834 30.9776 16.7753 27.8755 19.686 25.3005C20.5267 24.5567 21.3722 23.8403 22.1667 23.1669C22.7352 22.6851 23.2776 22.2254 23.7737 21.7936C24.9899 20.7348 25.9622 19.8144 26.5611 19.0015L27.3662 19.5947C26.6945 20.5064 25.6443 21.491 24.4303 22.5478C23.9075 23.003 23.3595 23.4671 22.7913 23.9485C22.0112 24.6093 21.1929 25.3026 20.3486 26.0495Z" fill="black"/>
<path d="M31.6258 41.4782H32.9421V46.1802H31.6258V41.4782Z" fill="black"/>
<path d="M46.4818 41.6591H47.6101V45.9994H46.4818V41.6591Z" fill="black"/>
<path d="M33.8824 41.6591H35.0107V46.1802H33.8824V41.6591Z" fill="black"/>
<path d="M48.6813 41.6387H49.8673V45.9701H48.6813V41.6387Z" fill="black"/>
<path d="M38.3234 41.687H39.5093V46.0185H38.3234V41.687Z" fill="black"/>
<path d="M40.5259 41.687H41.7118V46.0185H40.5259V41.687Z" fill="black"/>
<path d="M42.7284 41.687H43.9144V46.0185H42.7284V41.687Z" fill="black"/>
<path d="M31.6258 41.4782H32.9421V46.1802H31.6258V41.4782Z" fill="black"/>
<path d="M55 42H56V46H55V42Z" fill="black"/>
<path d="M46.4818 41.6591H47.6101V45.9994H46.4818V41.6591Z" fill="black"/>
<path d="M34 42H35V46H34V42Z" fill="black"/>
<path d="M48.6813 41.6387H49.8673V45.9701H48.6813V41.6387Z" fill="black"/>
<path d="M53 41H54V46H53V41Z" fill="black"/>
<path d="M38.3234 41.687H39.5093V46.0185H38.3234V41.687Z" fill="black"/>
<path d="M57 42H58V46H57V42Z" fill="black"/>
<path d="M61 42H62V46H61V42Z" fill="black"/>
<path d="M63 42H64V46H63V42Z" fill="black"/>
<path d="M40.5259 41.687H41.7118V46.0185H40.5259V41.687Z" fill="black"/>
<path d="M42.7284 41.687H43.9144V46.0185H42.7284V41.687Z" fill="black"/>
<path d="M30.9862 25.3242C31.0725 25.3242 31.1555 25.36 31.2352 25.4316C31.3166 25.5032 31.3573 25.583 31.3573 25.6709C31.3573 25.7588 31.3353 25.8735 31.2914 26.0151C31.2474 26.1551 31.1856 26.3048 31.1058 26.4643C31.0277 26.6222 30.9317 26.7866 30.8177 26.9575C30.7054 27.1268 30.5826 27.292 30.4491 27.4531C30.3173 27.6126 30.1716 27.7648 30.0121 27.9096C29.8542 28.0529 29.6939 28.1782 29.5311 28.2856C29.1763 28.52 28.8296 28.6372 28.4911 28.6372C28.3739 28.6372 28.2697 28.6063 28.1786 28.5444C28.0874 28.4826 28.0166 28.4215 27.9662 28.3613C27.8506 28.223 27.7928 28.0317 27.7928 27.7876C27.7928 27.5418 27.8734 27.2537 28.0345 26.9233C28.1973 26.5929 28.4187 26.2812 28.6986 25.9883C28.9802 25.6937 29.2951 25.4528 29.6434 25.2656C29.9917 25.0768 30.323 24.9824 30.6371 24.9824C30.6989 24.9824 30.7575 24.9962 30.8129 25.0239C30.8682 25.0516 30.8959 25.0841 30.8959 25.1216C30.8959 25.1574 30.8869 25.1875 30.869 25.2119C30.8511 25.2347 30.834 25.2599 30.8177 25.2876C30.8015 25.3136 30.7876 25.3323 30.7762 25.3437C30.83 25.3307 30.8999 25.3242 30.9862 25.3242ZM30.0756 26.4521C30.0756 26.4847 30.0642 26.5009 30.0414 26.5009C30.0186 26.5009 29.9714 26.4619 29.8998 26.3838C29.8282 26.304 29.7924 26.2373 29.7924 26.1836C29.7924 26.0582 29.8762 25.9158 30.0438 25.7563C30.2131 25.5968 30.4011 25.4756 30.6078 25.3925C30.3799 25.4056 30.1154 25.5024 29.8143 25.6831C29.5132 25.8637 29.2496 26.0818 29.0233 26.3374C28.7971 26.5913 28.614 26.8566 28.474 27.1333C28.3357 27.41 28.2665 27.6346 28.2665 27.8071C28.2665 27.9129 28.2901 28.004 28.3373 28.0805C28.3845 28.1554 28.4642 28.1928 28.5765 28.1928C28.6905 28.1928 28.8272 28.1538 28.9867 28.0757C29.1462 27.9975 29.3016 27.895 29.453 27.768C29.9738 27.327 30.3807 26.837 30.6737 26.2983C30.7925 26.077 30.8519 25.924 30.8519 25.8393C30.8519 25.8051 30.8405 25.7881 30.8177 25.7881C30.751 25.7881 30.6566 25.8312 30.5345 25.9174C30.4125 26.0021 30.3042 26.0957 30.2098 26.1982C30.1154 26.3008 30.0682 26.3748 30.0682 26.4204L30.0756 26.4521Z" fill="black"/>
<path d="M31.9213 28.2881C31.6185 28.5582 31.2572 28.6933 30.8373 28.6933C30.5834 28.6933 30.4019 28.6396 30.2928 28.5322C30.231 28.4736 30.2001 28.3702 30.2001 28.2221C30.2001 27.9943 30.3734 27.847 30.7201 27.7802C30.8291 27.7591 30.9602 27.7485 31.1132 27.7485C31.2662 27.7485 31.4753 27.777 31.7406 27.834C31.8822 27.6761 32.0507 27.4441 32.246 27.1382C32.4429 26.8305 32.5983 26.5937 32.7123 26.4277C32.8262 26.2617 32.9556 26.0924 33.1005 25.9199C33.2453 25.7457 33.3967 25.5887 33.5546 25.4487C33.8752 25.1622 34.1926 25.019 34.5067 25.019C34.6467 25.019 34.7476 25.0548 34.8094 25.1264C34.8713 25.1964 34.9022 25.2802 34.9022 25.3779C34.9022 25.4739 34.8575 25.5862 34.7679 25.7148C34.6801 25.8434 34.5775 25.9573 34.4603 26.0566C34.3448 26.1559 34.23 26.2405 34.1161 26.3105C34.0038 26.3789 33.9151 26.4131 33.85 26.4131C33.7849 26.4131 33.7287 26.3854 33.6815 26.33C33.6343 26.2747 33.6107 26.2218 33.6107 26.1714C33.6107 26.1193 33.6172 26.0835 33.6302 26.0639C33.6449 26.0428 33.6595 26.0322 33.6742 26.0322C33.6888 26.0322 33.6978 26.0411 33.701 26.0591C33.7531 26.0428 33.8361 25.9923 33.9501 25.9077C34.0656 25.8214 34.1706 25.7319 34.265 25.6391C34.3594 25.5464 34.4066 25.4886 34.4066 25.4658C34.4066 25.4414 34.392 25.4292 34.3627 25.4292C34.335 25.4292 34.2968 25.4389 34.2479 25.4585C34.1991 25.478 34.134 25.5187 34.0526 25.5805C33.9712 25.6408 33.8833 25.7189 33.7889 25.8149C33.5611 26.0428 33.3072 26.3659 33.0272 26.7841C32.9621 26.8786 32.8702 27.0161 32.7513 27.1967C32.5088 27.563 32.3355 27.8136 32.2313 27.9487C33.0663 28.1684 33.6628 28.2783 34.0209 28.2783C34.1869 28.2783 34.3033 28.2571 34.37 28.2148C34.3944 28.2002 34.4107 28.1928 34.4188 28.1928C34.427 28.1928 34.431 28.1994 34.431 28.2124C34.431 28.2254 34.4237 28.2449 34.4091 28.271C34.3944 28.297 34.3578 28.3523 34.2992 28.437C34.2422 28.5216 34.1999 28.5721 34.1722 28.5883C34.0925 28.6355 33.9566 28.6591 33.7645 28.6591C33.5741 28.6591 33.3918 28.6453 33.2177 28.6176C33.0451 28.59 32.906 28.5631 32.8002 28.5371C32.6944 28.5094 32.5373 28.4655 32.329 28.4052C32.1223 28.345 31.9864 28.306 31.9213 28.2881ZM31.0302 28.1391C30.8169 28.1391 30.7103 28.1644 30.7103 28.2148C30.7103 28.2343 30.7282 28.2514 30.764 28.2661C30.8015 28.2807 30.8454 28.2881 30.8959 28.2881C31.0538 28.2881 31.2059 28.2466 31.3524 28.1635C31.2271 28.1473 31.1197 28.1391 31.0302 28.1391Z" fill="black"/>
<path d="M38.3324 25.5586C38.3324 25.6416 38.2795 25.7417 38.1737 25.8589C38.0679 25.976 37.9369 26.0875 37.7806 26.1933C37.626 26.2991 37.4722 26.3829 37.3192 26.4448C37.3534 26.4334 37.3884 26.4277 37.4242 26.4277C37.5446 26.4277 37.6244 26.4497 37.6635 26.4936C37.6732 26.5034 37.6781 26.5148 37.6781 26.5278C37.6781 26.5408 37.6561 26.5726 37.6122 26.623C37.1548 27.152 36.7349 27.6769 36.3524 28.1977C36.5087 28.0757 36.647 27.9593 36.7675 27.8486C36.8342 27.7884 36.9156 27.7583 37.0116 27.7583C37.0816 27.7583 37.1247 27.7672 37.141 27.7851C37.1573 27.803 37.1654 27.8185 37.1654 27.8315C37.1654 27.8429 37.1548 27.8567 37.1337 27.873C36.8619 28.1106 36.4183 28.4573 35.8031 28.9131C35.6973 29.0319 35.4304 29.3151 35.0023 29.7627C34.9258 29.8408 34.8412 29.8799 34.7484 29.8799C34.5677 29.8799 34.4774 29.8294 34.4774 29.7285C34.4774 29.6845 34.5124 29.6146 34.5824 29.5185C34.6833 29.3704 34.9299 29.1466 35.3221 28.8471C35.4084 28.7511 35.5573 28.5883 35.7689 28.3589C36.1693 27.9227 36.411 27.6427 36.494 27.519C36.2727 27.729 36.105 27.8771 35.9911 27.9633C35.8772 28.0496 35.7714 28.1245 35.6737 28.188C35.5777 28.2514 35.489 28.3027 35.4076 28.3418C35.0137 28.5306 34.733 28.5314 34.5653 28.3442C34.4807 28.2514 34.4384 28.1155 34.4384 27.9365C34.4384 27.7558 34.488 27.5573 34.5873 27.3408C34.6866 27.1243 34.8192 26.9111 34.9852 26.7011C35.1512 26.4896 35.3482 26.2837 35.576 26.0835C35.8039 25.8833 36.0407 25.7075 36.2865 25.5561C36.5323 25.4048 36.7911 25.2835 37.0629 25.1924C37.3347 25.0996 37.591 25.0532 37.8319 25.0532C37.9149 25.0532 37.993 25.067 38.0663 25.0947C38.1395 25.1224 38.1916 25.1517 38.2225 25.1826C38.2958 25.2558 38.3324 25.3812 38.3324 25.5586ZM36.9213 26.0688L36.9091 26.1176C36.9091 26.1453 36.9278 26.1591 36.9652 26.1591C37.0645 26.1591 37.2004 26.1111 37.3729 26.0151C37.5455 25.9191 37.6846 25.8206 37.7904 25.7197C37.8962 25.6188 37.9491 25.535 37.9491 25.4682C37.9491 25.4113 37.8986 25.3828 37.7977 25.3828C37.6187 25.3828 37.4169 25.4267 37.1923 25.5146C36.9693 25.6025 36.7512 25.7164 36.538 25.8564C36.3247 25.9964 36.1148 26.1575 35.9081 26.3398C35.7014 26.5205 35.5207 26.702 35.3661 26.8842C35.2131 27.0649 35.0894 27.2423 34.995 27.4165C34.9006 27.5906 34.8534 27.7396 34.8534 27.8633C34.8534 27.9121 34.8672 27.9552 34.8949 27.9926C34.9242 28.0301 34.9665 28.0488 35.0219 28.0488C35.1927 28.0488 35.4678 27.9178 35.847 27.6557C36.2279 27.3937 36.6649 27.0364 37.1581 26.584C37.1646 26.5774 37.176 26.5652 37.1923 26.5473C37.2281 26.5034 37.2647 26.4716 37.3021 26.4521C37.1687 26.5058 37.0596 26.5327 36.975 26.5327C36.8903 26.5327 36.8204 26.514 36.765 26.4765C36.7097 26.4391 36.682 26.3886 36.682 26.3252C36.682 26.2601 36.7105 26.199 36.7675 26.1421C36.8244 26.0851 36.8643 26.0566 36.8871 26.0566C36.9099 26.0566 36.9213 26.0607 36.9213 26.0688Z" fill="black"/>
<path d="M40.7445 25.1679C40.795 25.0556 40.8308 24.9995 40.8519 24.9995H40.8641C40.8885 24.9995 40.9382 25.0255 41.0131 25.0776C41.0879 25.1297 41.1254 25.1785 41.1254 25.2241C41.1254 25.2876 40.917 25.7791 40.5004 26.6987C40.0837 27.6183 39.8444 28.1342 39.7826 28.2466C39.7224 28.3572 39.6809 28.4313 39.6581 28.4687C39.6353 28.5062 39.6044 28.5477 39.5653 28.5932C39.4953 28.6795 39.4082 28.7226 39.3041 28.7226C39.2618 28.7226 39.2243 28.7275 39.1918 28.7373C39.1592 28.7487 39.1397 28.7544 39.1332 28.7544C39.0811 28.7544 39.0551 28.7422 39.0551 28.7177C39.0551 28.7129 39.0616 28.6925 39.0746 28.6567C39.0892 28.6225 39.2756 28.2278 39.6337 27.4726C39.2512 27.458 38.9151 27.4466 38.6254 27.4384C38.347 27.7884 38.0948 28.1546 37.8685 28.5371C37.8409 28.5908 37.8148 28.6282 37.7904 28.6494C37.766 28.6722 37.7326 28.6836 37.6903 28.6836C37.648 28.6836 37.6024 28.6616 37.5536 28.6176C37.5048 28.5753 37.4803 28.5257 37.4803 28.4687C37.4803 28.306 37.6903 27.9577 38.1102 27.4238C37.9133 27.4238 37.788 27.4287 37.7343 27.4384C37.6822 27.4482 37.6488 27.4531 37.6342 27.4531C37.5902 27.4531 37.5682 27.4165 37.5682 27.3432C37.5682 27.2684 37.6114 27.2033 37.6976 27.1479C37.7855 27.091 37.9027 27.0625 38.0492 27.0625C38.0606 27.0625 38.0809 27.0617 38.1102 27.06C38.2111 27.0551 38.3145 27.0511 38.4203 27.0478C38.7751 26.6312 39.1462 26.2446 39.5336 25.8882C39.9209 25.5317 40.2562 25.2819 40.5394 25.1386C40.585 25.1159 40.6208 25.1053 40.6469 25.1069C40.6745 25.1069 40.7071 25.1272 40.7445 25.1679ZM40.5736 25.5122C39.9795 25.963 39.4367 26.4749 38.9452 27.0478C39.2333 27.0543 39.5246 27.0665 39.8192 27.0844C40.1154 26.4611 40.3669 25.937 40.5736 25.5122Z" fill="black"/>
<path d="M28.7548 33.0932L28.8256 33.0761C28.8353 33.0761 28.8402 33.0859 28.8402 33.1054C28.8402 33.1233 28.8117 33.1535 28.7548 33.1958C28.6994 33.2381 28.6319 33.2592 28.5521 33.2592C28.474 33.2592 28.4122 33.2365 28.3666 33.1909C28.3226 33.1453 28.3007 33.0859 28.3007 33.0127C28.3007 32.858 28.4016 32.705 28.6034 32.5537C28.8052 32.4007 29.0534 32.2786 29.348 32.1875C29.6426 32.0947 29.925 32.0483 30.1952 32.0483C30.5907 32.0483 30.8845 32.1126 31.0765 32.2412C31.2702 32.3698 31.3671 32.5423 31.3671 32.7588C31.3671 33.0355 31.175 33.3032 30.7909 33.562C30.5891 33.6987 30.371 33.8077 30.1366 33.8891C30.3938 33.9168 30.5988 33.9998 30.7518 34.1382C30.8674 34.2423 30.9252 34.375 30.9252 34.5361C30.9252 34.6972 30.8479 34.8616 30.6932 35.0293C30.5402 35.1953 30.336 35.3336 30.0804 35.4443C29.8249 35.5534 29.5637 35.6079 29.2968 35.6079C28.9891 35.6079 28.7629 35.5403 28.618 35.4052C28.5529 35.3434 28.5204 35.2889 28.5204 35.2417C28.5204 35.1928 28.5326 35.1416 28.557 35.0879C28.4382 35.3027 28.3511 35.4647 28.2958 35.5737C28.2714 35.6225 28.2217 35.6469 28.1469 35.6469C28.0736 35.6469 28.0166 35.6274 27.976 35.5883C27.9353 35.5493 27.9149 35.5053 27.9149 35.4565C27.9149 35.4077 27.9222 35.3646 27.9369 35.3271C28.0101 35.1351 28.2681 34.6858 28.7108 33.9795C29.1552 33.2715 29.427 32.8613 29.5262 32.749C29.5783 32.6855 29.6963 32.6538 29.8802 32.6538C29.9535 32.6538 29.9901 32.6701 29.9901 32.7026C29.9901 32.727 29.8819 32.9101 29.6654 33.2519C29.4489 33.5937 29.3358 33.7728 29.326 33.789C29.5523 33.7239 29.7834 33.6352 30.0194 33.5229C30.257 33.409 30.4637 33.2804 30.6395 33.1372C30.8169 32.9939 30.9056 32.8646 30.9056 32.749C30.9056 32.5586 30.6989 32.4633 30.2855 32.4633C29.8526 32.4633 29.4359 32.5781 29.0355 32.8076C28.9362 32.8646 28.8606 32.9166 28.8085 32.9638C28.7564 33.011 28.7303 33.0444 28.7303 33.0639C28.7303 33.0835 28.7385 33.0932 28.7548 33.0932ZM29.1942 34.2602C29.1649 34.2602 29.1324 34.226 29.0966 34.1577C28.9419 34.4051 28.78 34.6801 28.6107 34.9829C28.6872 34.8771 28.7987 34.8242 28.9452 34.8242C29.0428 34.8242 29.0917 34.8364 29.0917 34.8608C29.0917 34.8706 29.0811 34.8795 29.0599 34.8877C28.9948 34.9121 28.9623 34.9487 28.9623 34.9975C28.9623 35.1147 29.0868 35.1733 29.3358 35.1733C29.6727 35.1733 29.9779 35.0561 30.2513 34.8217C30.3978 34.698 30.4711 34.5898 30.4711 34.497C30.4711 34.4401 30.4117 34.3774 30.2928 34.3091C30.1545 34.2326 29.9437 34.1943 29.6605 34.1943C29.4636 34.1943 29.3374 34.2057 29.2821 34.2285C29.2268 34.2496 29.1975 34.2602 29.1942 34.2602Z" fill="black"/>
<path d="M32.2045 33.2055C32.2045 33.3113 32.3892 33.3642 32.7587 33.3642C32.8498 33.3642 32.9174 33.3545 32.9613 33.3349C33.0769 33.2796 33.2185 33.2519 33.3861 33.2519C33.5554 33.2519 33.64 33.2951 33.64 33.3813C33.64 33.4155 33.6254 33.466 33.5961 33.5327C33.5684 33.5978 33.5472 33.6377 33.5326 33.6523C33.5196 33.667 33.4675 33.6873 33.3763 33.7133C33.2852 33.7378 33.2258 33.7516 33.1981 33.7549C33.1721 33.7565 33.1542 33.7581 33.1444 33.7597C33.1363 33.7614 33.1257 33.763 33.1127 33.7646C33.1013 33.7662 33.0744 33.7711 33.0321 33.7793C32.9898 33.7858 32.9589 33.785 32.9393 33.7768C32.4006 34.0421 32.0303 34.3335 31.8285 34.6508C31.7373 34.7941 31.6918 34.917 31.6918 35.0195C31.6918 35.1806 31.8033 35.2612 32.0262 35.2612C32.2004 35.2612 32.4218 35.1928 32.6903 35.0561C32.9589 34.9194 33.1965 34.7542 33.4032 34.5605C33.6115 34.3652 33.7157 34.1959 33.7157 34.0527C33.7157 34.0071 33.7499 33.9843 33.8182 33.9843C33.9761 33.9843 34.0551 34.0779 34.0551 34.2651C34.0551 34.353 34.0168 34.458 33.9403 34.58C33.8638 34.7005 33.7572 34.8234 33.6205 34.9487C33.4838 35.0724 33.3316 35.188 33.1639 35.2954C32.9963 35.4028 32.8099 35.4907 32.6049 35.5591C32.4014 35.6274 32.2289 35.6616 32.0873 35.6616C31.9457 35.6616 31.8309 35.6478 31.743 35.6201C31.6568 35.594 31.5754 35.5542 31.4989 35.5005C31.3329 35.3849 31.2499 35.2099 31.2499 34.9756C31.2499 34.8486 31.2841 34.72 31.3524 34.5898C31.4208 34.458 31.5103 34.3383 31.621 34.2309C31.8244 34.0291 32.0425 33.8615 32.2753 33.728C31.94 33.6515 31.7723 33.479 31.7723 33.2104C31.7723 32.9077 32.0051 32.631 32.4706 32.3803C32.7294 32.242 33.0101 32.1427 33.3129 32.0825C33.4561 32.0532 33.5757 32.0385 33.6718 32.0385C33.8671 32.0385 34.0144 32.054 34.1136 32.0849C34.1739 32.1142 34.2227 32.1557 34.2601 32.2094C34.2976 32.2615 34.3163 32.3071 34.3163 32.3462C34.3163 32.3836 34.3114 32.4178 34.3016 32.4487C34.2919 32.4796 34.2756 32.504 34.2528 32.5219C34.2203 32.5464 34.1836 32.5651 34.1429 32.5781C34.1023 32.5911 34.0787 32.5993 34.0721 32.6025C33.9452 32.6562 33.8361 32.6831 33.745 32.6831C33.5822 32.6831 33.4935 32.6619 33.4789 32.6196C33.4821 32.5773 33.5 32.5285 33.5326 32.4731C33.378 32.4796 33.2177 32.5114 33.0516 32.5683C32.8856 32.6237 32.7416 32.6896 32.6195 32.7661C32.4991 32.841 32.3998 32.9191 32.3217 33.0005C32.2435 33.0818 32.2045 33.1502 32.2045 33.2055Z" fill="black"/>
<path d="M35.1586 35.2881C34.8558 35.5582 34.4945 35.6933 34.0746 35.6933C33.8207 35.6933 33.6392 35.6396 33.5302 35.5322C33.4683 35.4736 33.4374 35.3702 33.4374 35.2221C33.4374 34.9943 33.6107 34.847 33.9574 34.7802C34.0664 34.7591 34.1975 34.7485 34.3505 34.7485C34.5035 34.7485 34.7126 34.777 34.9779 34.834C35.1195 34.6761 35.288 34.4441 35.4833 34.1382C35.6802 33.8305 35.8357 33.5937 35.9496 33.4277C36.0635 33.2617 36.1929 33.0924 36.3378 32.9199C36.4826 32.7457 36.634 32.5887 36.7919 32.4487C37.1125 32.1622 37.4299 32.019 37.744 32.019C37.884 32.019 37.9849 32.0548 38.0468 32.1264C38.1086 32.1964 38.1395 32.2802 38.1395 32.3779C38.1395 32.4739 38.0948 32.5862 38.0052 32.7148C37.9174 32.8434 37.8148 32.9573 37.6976 33.0566C37.5821 33.1559 37.4673 33.2405 37.3534 33.3105C37.2411 33.3789 37.1524 33.4131 37.0873 33.4131C37.0222 33.4131 36.966 33.3854 36.9188 33.33C36.8716 33.2747 36.848 33.2218 36.848 33.1714C36.848 33.1193 36.8545 33.0835 36.8676 33.0639C36.8822 33.0428 36.8969 33.0322 36.9115 33.0322C36.9261 33.0322 36.9351 33.0411 36.9384 33.0591C36.9904 33.0428 37.0734 32.9923 37.1874 32.9077C37.3029 32.8214 37.4079 32.7319 37.5023 32.6391C37.5967 32.5464 37.6439 32.4886 37.6439 32.4658C37.6439 32.4414 37.6293 32.4292 37.6 32.4292C37.5723 32.4292 37.5341 32.4389 37.4852 32.4585C37.4364 32.478 37.3713 32.5187 37.2899 32.5805C37.2085 32.6408 37.1206 32.7189 37.0262 32.8149C36.7984 33.0428 36.5445 33.3659 36.2645 33.7841C36.1994 33.8786 36.1075 34.0161 35.9886 34.1967C35.7461 34.563 35.5728 34.8136 35.4686 34.9487C36.3036 35.1684 36.9001 35.2783 37.2582 35.2783C37.4242 35.2783 37.5406 35.2571 37.6073 35.2148C37.6317 35.2002 37.648 35.1928 37.6561 35.1928C37.6643 35.1928 37.6683 35.1994 37.6683 35.2124C37.6683 35.2254 37.661 35.2449 37.6464 35.271C37.6317 35.297 37.5951 35.3523 37.5365 35.437C37.4795 35.5216 37.4372 35.5721 37.4095 35.5883C37.3298 35.6355 37.1939 35.6591 37.0018 35.6591C36.8114 35.6591 36.6291 35.6453 36.455 35.6176C36.2824 35.59 36.1433 35.5631 36.0375 35.5371C35.9317 35.5094 35.7746 35.4655 35.5663 35.4052C35.3596 35.345 35.2237 35.306 35.1586 35.2881ZM34.2675 35.1391C34.0542 35.1391 33.9476 35.1644 33.9476 35.2148C33.9476 35.2343 33.9655 35.2514 34.0013 35.2661C34.0388 35.2807 34.0827 35.2881 34.1332 35.2881C34.2911 35.2881 34.4432 35.2466 34.5897 35.1635C34.4644 35.1473 34.357 35.1391 34.2675 35.1391Z" fill="black"/>
<path d="M39.8998 32.0532L40.0145 32.0483C40.0568 32.0483 40.078 32.0646 40.078 32.0971C40.078 32.1069 40.0764 32.1142 40.0731 32.1191C39.2951 33.2633 38.5684 34.3847 37.8929 35.4834C37.8571 35.542 37.8254 35.5753 37.7977 35.5835C37.7961 35.5835 37.788 35.5867 37.7733 35.5932C37.6919 35.6242 37.635 35.6396 37.6024 35.6396C37.5699 35.6396 37.552 35.6404 37.5487 35.6421C37.5341 35.6583 37.5162 35.6665 37.495 35.6665C37.4755 35.6665 37.4624 35.6657 37.4559 35.664C37.4494 35.664 37.4307 35.6575 37.3998 35.6445C37.3689 35.6331 37.3534 35.6242 37.3534 35.6176C37.3534 35.5379 37.3566 35.4899 37.3632 35.4736C37.3973 35.358 37.5853 35.0325 37.9271 34.497C38.2689 33.9599 38.6164 33.4367 38.9696 32.9272C39.3244 32.4161 39.5393 32.1313 39.6141 32.0727C39.6369 32.0548 39.667 32.0459 39.7045 32.0459L39.8998 32.0532Z" fill="black"/>
<path d="M42.6586 34.2431C42.7025 34.2431 42.7245 34.3009 42.7245 34.4165C42.7245 34.532 42.7172 34.6093 42.7025 34.6484C42.6537 34.7737 42.5398 34.9145 42.3607 35.0708C42.1833 35.2254 41.988 35.3572 41.7748 35.4663C41.5632 35.5737 41.389 35.6274 41.2523 35.6274C41.1872 35.6274 41.1319 35.6022 41.0863 35.5517C41.0424 35.5013 41.0204 35.4354 41.0204 35.354C41.0204 35.2091 41.1034 34.9878 41.2694 34.6899C41.4354 34.3921 41.6364 34.0812 41.8724 33.7573C41.4802 34.213 41.2019 34.5206 41.0375 34.6801C40.8747 34.8397 40.729 34.9764 40.6005 35.0903C40.4719 35.2026 40.3563 35.2929 40.2538 35.3613C40.0096 35.5224 39.816 35.603 39.6727 35.603C39.5295 35.603 39.4278 35.5639 39.3676 35.4858C39.3073 35.4061 39.2772 35.3182 39.2772 35.2221C39.2772 34.9406 39.4416 34.5451 39.7704 34.0356C40.1008 33.5245 40.4043 33.1071 40.681 32.7832C40.4467 32.9899 40.2847 33.0932 40.1952 33.0932C40.1073 33.0932 40.0414 33.0664 39.9974 33.0127C39.9535 32.9573 39.9315 32.8955 39.9315 32.8271C39.9315 32.7571 39.9641 32.692 40.0292 32.6318C40.0943 32.57 40.1415 32.539 40.1708 32.539C40.2017 32.539 40.2172 32.5415 40.2172 32.5464C40.2172 32.5512 40.205 32.5691 40.1805 32.6001C40.1561 32.6294 40.1439 32.6497 40.1439 32.6611C40.1439 32.6725 40.1545 32.6782 40.1757 32.6782C40.2391 32.6782 40.3775 32.6139 40.5907 32.4853C40.8039 32.3567 40.9862 32.2314 41.1376 32.1093C41.1783 32.0752 41.2247 32.0581 41.2767 32.0581C41.3304 32.0581 41.3817 32.0711 41.4305 32.0971C41.4338 32.089 41.4476 32.0906 41.472 32.102C41.4965 32.1134 41.5209 32.1313 41.5453 32.1557C41.5697 32.1801 41.5819 32.2029 41.5819 32.2241C41.5819 32.2452 41.5754 32.2648 41.5624 32.2827C40.8853 33.1583 40.4597 33.7288 40.2855 33.9941C39.9323 34.5328 39.7557 34.8828 39.7557 35.0439C39.7557 35.1009 39.7793 35.1294 39.8265 35.1294C39.8754 35.1294 40.0113 35.0382 40.2343 34.8559C40.8462 34.3579 41.704 33.479 42.8075 32.2192C42.8514 32.1688 42.8929 32.1452 42.932 32.1484H42.954C42.9605 32.1484 42.9784 32.146 43.0077 32.1411C43.0386 32.1346 43.0883 32.1313 43.1566 32.1313C43.3194 32.1313 43.4008 32.1614 43.4008 32.2216C43.4008 32.2477 43.3763 32.2933 43.3275 32.3584C43.2803 32.4235 43.181 32.5634 43.0297 32.7783C42.8783 32.9931 42.6895 33.2658 42.4633 33.5962C42.2386 33.9266 42.0441 34.2301 41.8798 34.5068C41.717 34.7835 41.6356 34.9593 41.6356 35.0341C41.6356 35.0358 41.6381 35.0366 41.6429 35.0366C41.6495 35.0366 41.6755 35.0252 41.7211 35.0024C41.861 34.9292 42.0246 34.8128 42.2118 34.6533C42.4006 34.4938 42.5194 34.3855 42.5682 34.3286C42.6187 34.2716 42.6488 34.2431 42.6586 34.2431Z" fill="black"/>
<path d="M46.6942 32.0581L46.7821 32.0825C46.9888 32.1134 47.0922 32.1753 47.0922 32.268C47.0922 32.2941 47.0824 32.3161 47.0629 32.334C46.8431 32.5309 46.551 32.7433 46.1864 32.9712C45.6298 33.3178 44.9983 33.6531 44.2919 33.977C44.523 34.1089 44.8363 34.3278 45.2318 34.6338C45.7624 35.026 46.0887 35.2221 46.2108 35.2221C46.2531 35.2221 46.2889 35.2107 46.3182 35.188C46.3492 35.1635 46.3663 35.1513 46.3695 35.1513C46.3972 35.1513 46.411 35.1644 46.411 35.1904C46.411 35.2132 46.3833 35.2783 46.328 35.3857C46.2743 35.4931 46.2279 35.5639 46.1888 35.5981C46.1514 35.6323 46.0912 35.6494 46.0082 35.6494C45.9252 35.6494 45.8145 35.6087 45.6761 35.5273C45.5378 35.4459 45.3864 35.3442 45.222 35.2221C45.0593 35.0984 44.8965 34.9731 44.7338 34.8462C44.322 34.5288 44.0445 34.3408 43.9012 34.2822C43.3999 35.0732 43.142 35.4826 43.1273 35.5102C43.1143 35.5379 43.0964 35.5607 43.0736 35.5786C43.0524 35.5949 43.0386 35.603 43.0321 35.603L42.9271 35.6176L42.8417 35.6128C42.8189 35.6128 42.8026 35.616 42.7928 35.6225C42.7831 35.6307 42.7725 35.6364 42.7611 35.6396C42.7497 35.6429 42.7399 35.6478 42.7318 35.6543C42.7237 35.6624 42.7107 35.6665 42.6927 35.6665C42.6765 35.6665 42.6529 35.6526 42.6219 35.625C42.5927 35.5989 42.578 35.5761 42.578 35.5566C42.578 35.5371 42.5894 35.5029 42.6122 35.4541C42.6366 35.4052 42.9369 34.952 43.5131 34.0942H43.4667C43.3576 34.0942 43.3031 34.0649 43.3031 34.0063C43.3031 33.9461 43.33 33.8867 43.3837 33.8281C43.439 33.7679 43.4943 33.7378 43.5497 33.7378C43.605 33.7378 43.6661 33.7426 43.7328 33.7524C44.0404 33.2983 44.2772 32.9419 44.4432 32.6831C44.2544 32.8605 44.0754 32.9492 43.9061 32.9492C43.8247 32.9492 43.7605 32.9215 43.7133 32.8662C43.6661 32.8092 43.6425 32.7449 43.6425 32.6733C43.6425 32.6017 43.6604 32.5431 43.6962 32.4975C43.7336 32.452 43.7694 32.4202 43.8036 32.4023C43.8378 32.3844 43.8614 32.3755 43.8744 32.3755C43.8874 32.3755 43.8939 32.382 43.8939 32.395L43.8744 32.4536C43.8744 32.4764 43.9094 32.4878 43.9794 32.4878C44.0494 32.4878 44.147 32.4495 44.2723 32.373C44.3977 32.2949 44.5205 32.2176 44.641 32.1411C44.7614 32.063 44.8518 32.0239 44.912 32.0239C44.9722 32.0239 45.0113 32.0312 45.0292 32.0459C45.0487 32.0589 45.0658 32.0678 45.0804 32.0727C45.0967 32.076 45.1097 32.0817 45.1195 32.0898C45.1293 32.098 45.1374 32.1085 45.1439 32.1216C45.1504 32.1329 45.1626 32.146 45.1805 32.1606C45.1984 32.1753 45.2074 32.1948 45.2074 32.2192C45.2074 32.2436 45.2009 32.2664 45.1879 32.2876C44.9812 32.6001 44.7273 32.9939 44.4261 33.4692C44.8298 33.2592 45.2912 32.9907 45.8104 32.6635C46.3296 32.3348 46.6104 32.1411 46.6527 32.0825C46.6625 32.0662 46.6763 32.0581 46.6942 32.0581Z" fill="black"/>
<path d="M47.5023 33.2055C47.5023 33.3113 47.6871 33.3642 48.0565 33.3642C48.1477 33.3642 48.2152 33.3545 48.2592 33.3349C48.3747 33.2796 48.5163 33.2519 48.684 33.2519C48.8532 33.2519 48.9379 33.2951 48.9379 33.3813C48.9379 33.4155 48.9232 33.466 48.8939 33.5327C48.8663 33.5978 48.8451 33.6377 48.8304 33.6523C48.8174 33.667 48.7653 33.6873 48.6742 33.7133C48.583 33.7378 48.5236 33.7516 48.496 33.7549C48.4699 33.7565 48.452 33.7581 48.4423 33.7597C48.4341 33.7614 48.4235 33.763 48.4105 33.7646C48.3991 33.7662 48.3723 33.7711 48.33 33.7793C48.2876 33.7858 48.2567 33.785 48.2372 33.7768C47.6984 34.0421 47.3282 34.3335 47.1263 34.6508C47.0352 34.7941 46.9896 34.917 46.9896 35.0195C46.9896 35.1806 47.1011 35.2612 47.3241 35.2612C47.4983 35.2612 47.7196 35.1928 47.9882 35.0561C48.2567 34.9194 48.4943 34.7542 48.701 34.5605C48.9094 34.3652 49.0135 34.1959 49.0135 34.0527C49.0135 34.0071 49.0477 33.9843 49.1161 33.9843C49.274 33.9843 49.3529 34.0779 49.3529 34.2651C49.3529 34.353 49.3147 34.458 49.2382 34.58C49.1617 34.7005 49.0551 34.8234 48.9183 34.9487C48.7816 35.0724 48.6294 35.188 48.4618 35.2954C48.2941 35.4028 48.1078 35.4907 47.9027 35.5591C47.6993 35.6274 47.5267 35.6616 47.3851 35.6616C47.2435 35.6616 47.1288 35.6478 47.0409 35.6201C46.9546 35.594 46.8733 35.5542 46.7968 35.5005C46.6307 35.3849 46.5477 35.2099 46.5477 34.9756C46.5477 34.8486 46.5819 34.72 46.6503 34.5898C46.7186 34.458 46.8081 34.3383 46.9188 34.2309C47.1223 34.0291 47.3404 33.8615 47.5731 33.728C47.2378 33.6515 47.0702 33.479 47.0702 33.2104C47.0702 32.9077 47.3029 32.631 47.7684 32.3803C48.0272 32.242 48.308 32.1427 48.6107 32.0825C48.7539 32.0532 48.8736 32.0385 48.9696 32.0385C49.1649 32.0385 49.3122 32.054 49.4115 32.0849C49.4717 32.1142 49.5205 32.1557 49.558 32.2094C49.5954 32.2615 49.6141 32.3071 49.6141 32.3462C49.6141 32.3836 49.6093 32.4178 49.5995 32.4487C49.5897 32.4796 49.5734 32.504 49.5507 32.5219C49.5181 32.5464 49.4815 32.5651 49.4408 32.5781C49.4001 32.5911 49.3765 32.5993 49.37 32.6025C49.243 32.6562 49.134 32.6831 49.0428 32.6831C48.8801 32.6831 48.7914 32.6619 48.7767 32.6196C48.78 32.5773 48.7979 32.5285 48.8304 32.4731C48.6758 32.4796 48.5155 32.5114 48.3495 32.5683C48.1835 32.6237 48.0394 32.6896 47.9174 32.7661C47.7969 32.841 47.6976 32.9191 47.6195 33.0005C47.5414 33.0818 47.5023 33.1502 47.5023 33.2055Z" fill="black"/>
<path d="M53.1053 32.1386L53.0248 32.1557C53.0069 32.1557 52.9979 32.1443 52.9979 32.1216C52.9979 32.0988 53.0044 32.0841 53.0175 32.0776C53.1737 31.9881 53.3234 31.9433 53.4667 31.9433C53.5302 31.9433 53.5782 31.9677 53.6107 32.0166C53.6449 32.0638 53.662 32.1281 53.662 32.2094C53.662 32.2892 53.605 32.4292 53.4911 32.6294C53.3788 32.8296 53.2282 33.0566 53.0394 33.3105C52.8506 33.5628 52.6114 33.8395 52.3217 34.1406C52.0319 34.4401 51.7406 34.7046 51.4476 34.9341C51.1563 35.1619 50.8951 35.3344 50.6639 35.4516C50.4344 35.5688 50.2172 35.6274 50.0121 35.6274C49.8802 35.6274 49.781 35.5827 49.7142 35.4931C49.6491 35.402 49.6166 35.2994 49.6166 35.1855C49.6166 35.07 49.6548 34.9227 49.7313 34.7436C49.8094 34.563 49.903 34.3847 50.0121 34.209C50.1211 34.0315 50.2473 33.8452 50.3905 33.6499C50.6053 33.352 50.8308 33.0647 51.0668 32.7881C50.8047 33.0062 50.6257 33.1339 50.5297 33.1714C50.4353 33.2088 50.3531 33.2275 50.2831 33.2275C50.2147 33.2275 50.161 33.199 50.1219 33.1421C50.0845 33.0835 50.0658 33.0208 50.0658 32.9541C50.0658 32.8857 50.0927 32.8182 50.1464 32.7514C50.2017 32.6831 50.2538 32.6489 50.3026 32.6489C50.3205 32.6489 50.3295 32.6554 50.3295 32.6684C50.3295 32.6814 50.323 32.6969 50.3099 32.7148C50.2985 32.7311 50.2928 32.7425 50.2928 32.749C50.2928 32.7669 50.3067 32.7758 50.3344 32.7758C50.362 32.7758 50.4035 32.7636 50.4589 32.7392C50.5142 32.7148 50.6509 32.6294 50.869 32.4829C51.0887 32.3364 51.2499 32.2151 51.3524 32.1191C51.3931 32.0833 51.4509 32.0654 51.5258 32.0654C51.6023 32.0654 51.6788 32.0841 51.7552 32.1216C51.8317 32.1574 51.87 32.194 51.87 32.2314C51.87 32.2396 51.8684 32.2477 51.8651 32.2558C51.8619 32.2623 51.8586 32.2786 51.8553 32.3047C51.8521 32.3291 51.8391 32.3592 51.8163 32.395C51.7951 32.4292 51.6267 32.6668 51.3109 33.1079C50.5215 34.2081 50.1268 34.8584 50.1268 35.0586C50.1268 35.1318 50.1553 35.1684 50.2123 35.1684C50.2904 35.1684 50.4418 35.0976 50.6664 34.956C50.891 34.8128 51.0993 34.6549 51.2914 34.4824C51.4834 34.3082 51.6722 34.1251 51.8578 33.9331C52.0433 33.741 52.2346 33.5319 52.4315 33.3056C52.6285 33.0794 52.7953 32.8605 52.932 32.6489C53.0687 32.4373 53.1371 32.277 53.1371 32.1679C53.1371 32.1484 53.1265 32.1386 53.1053 32.1386Z" fill="black"/>
<path d="M54.934 32.0532L55.0487 32.0483C55.091 32.0483 55.1122 32.0646 55.1122 32.0971C55.1122 32.1069 55.1106 32.1142 55.1073 32.1191C54.3293 33.2633 53.6026 34.3847 52.9271 35.4834C52.8913 35.542 52.8596 35.5753 52.8319 35.5835C52.8303 35.5835 52.8221 35.5867 52.8075 35.5932C52.7261 35.6242 52.6691 35.6396 52.6366 35.6396C52.604 35.6396 52.5861 35.6404 52.5829 35.6421C52.5682 35.6583 52.5503 35.6665 52.5292 35.6665C52.5096 35.6665 52.4966 35.6657 52.4901 35.664C52.4836 35.664 52.4649 35.6575 52.434 35.6445C52.403 35.6331 52.3876 35.6242 52.3876 35.6176C52.3876 35.5379 52.3908 35.4899 52.3973 35.4736C52.4315 35.358 52.6195 35.0325 52.9613 34.497C53.3031 33.9599 53.6506 33.4367 54.0038 32.9272C54.3586 32.4161 54.5734 32.1313 54.6483 32.0727C54.6711 32.0548 54.7012 32.0459 54.7386 32.0459L54.934 32.0532Z" fill="black"/>
<path d="M56.6698 34.1699C56.7089 34.1699 56.7284 34.2016 56.7284 34.2651C56.7284 34.327 56.7146 34.4344 56.6869 34.5874C56.6657 34.6899 56.5485 34.8364 56.3353 35.0268C56.0782 35.2547 55.7958 35.4174 55.4882 35.5151C55.3026 35.5737 55.1211 35.603 54.9437 35.603C54.7679 35.603 54.6068 35.5289 54.4603 35.3808C54.3155 35.2311 54.243 35.0545 54.243 34.851C54.243 34.646 54.2837 34.4344 54.3651 34.2163C54.4481 33.9966 54.5588 33.7874 54.6971 33.5888C54.8371 33.3886 55.0015 33.1966 55.1903 33.0127C55.3807 32.8287 55.5785 32.6692 55.7836 32.5341C55.9886 32.3991 56.2035 32.2916 56.4281 32.2119C56.6527 32.1321 56.8659 32.0923 57.0677 32.0923C57.2273 32.0923 57.3632 32.15 57.4755 32.2656C57.5341 32.3274 57.5634 32.4056 57.5634 32.5C57.5634 32.5927 57.5178 32.7107 57.4266 32.854C57.3355 32.9956 57.2273 33.125 57.1019 33.2422C56.9782 33.3593 56.8496 33.4586 56.7162 33.54C56.5844 33.6214 56.4786 33.6621 56.3988 33.6621C56.3191 33.6621 56.2507 33.6377 56.1937 33.5888C56.1368 33.5384 56.1083 33.4936 56.1083 33.4546C56.1083 33.4155 56.1164 33.3724 56.1327 33.3252C56.1506 33.278 56.1726 33.2544 56.1986 33.2544C56.1921 33.2625 56.1888 33.2706 56.1888 33.2788C56.1888 33.2983 56.2165 33.3081 56.2719 33.3081C56.3288 33.3081 56.4232 33.2584 56.5551 33.1591C56.6869 33.0599 56.8057 32.9484 56.9115 32.8247C57.0189 32.701 57.0726 32.6082 57.0726 32.5464C57.0726 32.504 57.0441 32.4829 56.9872 32.4829C56.8342 32.4829 56.6226 32.5545 56.3524 32.6977C56.0839 32.8393 55.8267 33.0224 55.5809 33.247C55.3352 33.4716 55.1211 33.7386 54.9388 34.0478C54.7582 34.3554 54.6678 34.6321 54.6678 34.8779C54.6678 34.9804 54.6947 35.0626 54.7484 35.1245C54.8038 35.1863 54.8876 35.2173 54.9999 35.2173C55.1138 35.2173 55.2481 35.1847 55.4027 35.1196C55.5573 35.0545 55.7038 34.9747 55.8422 34.8803C55.9821 34.7859 56.114 34.6891 56.2377 34.5898C56.3614 34.4905 56.4598 34.4035 56.5331 34.3286C56.608 34.2537 56.6462 34.209 56.6478 34.1943C56.6495 34.178 56.6568 34.1699 56.6698 34.1699ZM56.7308 30.9301C56.7308 30.8846 56.7577 30.8618 56.8114 30.8618C56.8814 30.8618 56.9318 30.8821 56.9628 30.9228C56.9953 30.9619 57.0189 30.992 57.0336 31.0132C57.0498 31.0343 57.0669 31.0701 57.0848 31.1206C57.1027 31.1694 57.1158 31.2036 57.1239 31.2231C57.132 31.2475 57.154 31.3232 57.1898 31.4502C57.5658 31.0807 57.8181 30.896 57.9467 30.896C57.9662 30.896 57.9922 30.9155 58.0248 30.9546C58.059 30.9936 58.076 31.0245 58.076 31.0473C58.076 31.0685 58.0687 31.0905 58.0541 31.1133C58.0394 31.1344 58.0166 31.1596 57.9857 31.1889C57.9548 31.2166 57.9239 31.2426 57.8929 31.2671C57.8636 31.2915 57.8246 31.3232 57.7758 31.3623C57.7269 31.4013 57.683 31.4371 57.6439 31.4697C57.6065 31.5022 57.552 31.556 57.4803 31.6308C57.4087 31.7057 57.3493 31.761 57.3021 31.7968C57.2566 31.8327 57.211 31.8506 57.1654 31.8506C57.058 31.8506 56.9847 31.8107 56.9457 31.7309L56.9554 31.6723C56.9554 31.6577 56.9538 31.6455 56.9506 31.6357C56.8041 31.2597 56.7308 31.0245 56.7308 30.9301Z" fill="black"/>
<path d="M59.1771 32.0532L59.2919 32.0483C59.3342 32.0483 59.3553 32.0646 59.3553 32.0971C59.3553 32.1069 59.3537 32.1142 59.3505 32.1191C58.5725 33.2633 57.8457 34.3847 57.1703 35.4834C57.1345 35.542 57.1027 35.5753 57.0751 35.5835C57.0734 35.5835 57.0653 35.5867 57.0507 35.5932C56.9693 35.6242 56.9123 35.6396 56.8798 35.6396C56.8472 35.6396 56.8293 35.6404 56.826 35.6421C56.8114 35.6583 56.7935 35.6665 56.7723 35.6665C56.7528 35.6665 56.7398 35.6657 56.7333 35.664C56.7268 35.664 56.708 35.6575 56.6771 35.6445C56.6462 35.6331 56.6307 35.6242 56.6307 35.6176C56.6307 35.5379 56.634 35.4899 56.6405 35.4736C56.6747 35.358 56.8627 35.0325 57.2045 34.497C57.5463 33.9599 57.8938 33.4367 58.2469 32.9272C58.6018 32.4161 58.8166 32.1313 58.8915 32.0727C58.9143 32.0548 58.9444 32.0459 58.9818 32.0459L59.1771 32.0532Z" fill="black"/>
<path d="M59.4945 33.2055C59.4945 33.3113 59.6792 33.3642 60.0487 33.3642C60.1399 33.3642 60.2074 33.3545 60.2513 33.3349C60.3669 33.2796 60.5085 33.2519 60.6761 33.2519C60.8454 33.2519 60.9301 33.2951 60.9301 33.3813C60.9301 33.4155 60.9154 33.466 60.8861 33.5327C60.8584 33.5978 60.8373 33.6377 60.8226 33.6523C60.8096 33.667 60.7575 33.6873 60.6664 33.7133C60.5752 33.7378 60.5158 33.7516 60.4882 33.7549C60.4621 33.7565 60.4442 33.7581 60.4344 33.7597C60.4263 33.7614 60.4157 33.763 60.4027 33.7646C60.3913 33.7662 60.3645 33.7711 60.3221 33.7793C60.2798 33.7858 60.2489 33.785 60.2294 33.7768C59.6906 34.0421 59.3204 34.3335 59.1185 34.6508C59.0274 34.7941 58.9818 34.917 58.9818 35.0195C58.9818 35.1806 59.0933 35.2612 59.3163 35.2612C59.4904 35.2612 59.7118 35.1928 59.9803 35.0561C60.2489 34.9194 60.4865 34.7542 60.6932 34.5605C60.9016 34.3652 61.0057 34.1959 61.0057 34.0527C61.0057 34.0071 61.0399 33.9843 61.1083 33.9843C61.2662 33.9843 61.3451 34.0779 61.3451 34.2651C61.3451 34.353 61.3068 34.458 61.2303 34.58C61.1539 34.7005 61.0472 34.8234 60.9105 34.9487C60.7738 35.0724 60.6216 35.188 60.454 35.2954C60.2863 35.4028 60.1 35.4907 59.8949 35.5591C59.6914 35.6274 59.5189 35.6616 59.3773 35.6616C59.2357 35.6616 59.121 35.6478 59.0331 35.6201C58.9468 35.594 58.8654 35.5542 58.7889 35.5005C58.6229 35.3849 58.5399 35.2099 58.5399 34.9756C58.5399 34.8486 58.5741 34.72 58.6425 34.5898C58.7108 34.458 58.8003 34.3383 58.911 34.2309C59.1145 34.0291 59.3326 33.8615 59.5653 33.728C59.23 33.6515 59.0624 33.479 59.0624 33.2104C59.0624 32.9077 59.2951 32.631 59.7606 32.3803C60.0194 32.242 60.3002 32.1427 60.6029 32.0825C60.7461 32.0532 60.8658 32.0385 60.9618 32.0385C61.1571 32.0385 61.3044 32.054 61.4037 32.0849C61.4639 32.1142 61.5127 32.1557 61.5502 32.2094C61.5876 32.2615 61.6063 32.3071 61.6063 32.3462C61.6063 32.3836 61.6014 32.4178 61.5917 32.4487C61.5819 32.4796 61.5656 32.504 61.5428 32.5219C61.5103 32.5464 61.4737 32.5651 61.433 32.5781C61.3923 32.5911 61.3687 32.5993 61.3622 32.6025C61.2352 32.6562 61.1262 32.6831 61.035 32.6831C60.8723 32.6831 60.7836 32.6619 60.7689 32.6196C60.7722 32.5773 60.7901 32.5285 60.8226 32.4731C60.668 32.4796 60.5077 32.5114 60.3417 32.5683C60.1757 32.6237 60.0316 32.6896 59.9095 32.7661C59.7891 32.841 59.6898 32.9191 59.6117 33.0005C59.5336 33.0818 59.4945 33.1502 59.4945 33.2055Z" fill="black"/>
<path d="M63.4813 32.124L63.6595 32.0849C63.7051 32.0849 63.7417 32.0947 63.7694 32.1142C63.7971 32.1338 63.8109 32.1525 63.8109 32.1704C63.8109 32.1867 63.8068 32.2111 63.7987 32.2436C63.7906 32.2762 63.7247 32.5936 63.601 33.1958C63.4773 33.798 63.3869 34.2472 63.33 34.5434C63.6066 34.1674 63.9297 33.7044 64.2992 33.1543C64.6687 32.6041 64.8843 32.2387 64.9462 32.0581C64.9657 32.0011 64.9909 31.9572 65.0219 31.9262C65.0528 31.8953 65.0804 31.8774 65.1049 31.8725C65.1293 31.866 65.1667 31.8628 65.2172 31.8628C65.2676 31.8628 65.327 31.8742 65.3954 31.8969C65.4654 31.9181 65.5004 31.9539 65.5004 32.0044C65.5004 32.1004 65.358 32.3771 65.0731 32.8344C64.7883 33.2918 64.4628 33.7776 64.0966 34.292C63.732 34.8063 63.4268 35.2132 63.181 35.5127C63.1371 35.5664 63.0834 35.5932 63.0199 35.5932C62.958 35.5932 62.8921 35.5827 62.8221 35.5615C62.7538 35.5387 62.7196 35.4996 62.7196 35.4443C62.7196 35.2653 62.8767 34.4051 63.1908 32.8637C62.9222 33.212 62.5959 33.6971 62.2118 34.3188C61.8114 34.9617 61.5852 35.3605 61.5331 35.5151C61.5038 35.6079 61.4704 35.6616 61.433 35.6762C61.4069 35.6876 61.3793 35.6933 61.35 35.6933L61.1571 35.7153C61.1197 35.7153 61.0855 35.7047 61.0546 35.6836C61.022 35.6624 61.0057 35.6404 61.0057 35.6176C61.0057 35.5525 61.0953 35.358 61.2743 35.0341C61.455 34.7103 61.6649 34.3587 61.9042 33.9795C62.1451 33.5986 62.3965 33.2283 62.6586 32.8686C62.9206 32.5089 63.1232 32.2672 63.2665 32.1435C63.2958 32.1175 63.3291 32.1045 63.3666 32.1045L63.4813 32.124Z" fill="black"/>
<path d="M65.7396 33.2055C65.7396 33.3113 65.9244 33.3642 66.2938 33.3642C66.385 33.3642 66.4525 33.3545 66.4965 33.3349C66.612 33.2796 66.7536 33.2519 66.9213 33.2519C67.0905 33.2519 67.1752 33.2951 67.1752 33.3813C67.1752 33.4155 67.1605 33.466 67.1312 33.5327C67.1036 33.5978 67.0824 33.6377 67.0677 33.6523C67.0547 33.667 67.0026 33.6873 66.9115 33.7133C66.8204 33.7378 66.7609 33.7516 66.7333 33.7549C66.7072 33.7565 66.6893 33.7581 66.6796 33.7597C66.6714 33.7614 66.6608 33.763 66.6478 33.7646C66.6364 33.7662 66.6096 33.7711 66.5673 33.7793C66.5249 33.7858 66.494 33.785 66.4745 33.7768C65.9357 34.0421 65.5655 34.3335 65.3636 34.6508C65.2725 34.7941 65.2269 34.917 65.2269 35.0195C65.2269 35.1806 65.3384 35.2612 65.5614 35.2612C65.7356 35.2612 65.9569 35.1928 66.2255 35.0561C66.494 34.9194 66.7316 34.7542 66.9384 34.5605C67.1467 34.3652 67.2509 34.1959 67.2509 34.0527C67.2509 34.0071 67.285 33.9843 67.3534 33.9843C67.5113 33.9843 67.5902 34.0779 67.5902 34.2651C67.5902 34.353 67.552 34.458 67.4755 34.58C67.399 34.7005 67.2924 34.8234 67.1556 34.9487C67.0189 35.0724 66.8667 35.188 66.6991 35.2954C66.5315 35.4028 66.3451 35.4907 66.14 35.5591C65.9366 35.6274 65.764 35.6616 65.6224 35.6616C65.4808 35.6616 65.3661 35.6478 65.2782 35.6201C65.1919 35.594 65.1106 35.5542 65.0341 35.5005C64.868 35.3849 64.785 35.2099 64.785 34.9756C64.785 34.8486 64.8192 34.72 64.8876 34.5898C64.9559 34.458 65.0455 34.3383 65.1561 34.2309C65.3596 34.0291 65.5777 33.8615 65.8104 33.728C65.4751 33.6515 65.3075 33.479 65.3075 33.2104C65.3075 32.9077 65.5402 32.631 66.0057 32.3803C66.2645 32.242 66.5453 32.1427 66.848 32.0825C66.9913 32.0532 67.1109 32.0385 67.2069 32.0385C67.4022 32.0385 67.5495 32.054 67.6488 32.0849C67.709 32.1142 67.7579 32.1557 67.7953 32.2094C67.8327 32.2615 67.8514 32.3071 67.8514 32.3462C67.8514 32.3836 67.8466 32.4178 67.8368 32.4487C67.827 32.4796 67.8107 32.504 67.788 32.5219C67.7554 32.5464 67.7188 32.5651 67.6781 32.5781C67.6374 32.5911 67.6138 32.5993 67.6073 32.6025C67.4803 32.6562 67.3713 32.6831 67.2802 32.6831C67.1174 32.6831 67.0287 32.6619 67.014 32.6196C67.0173 32.5773 67.0352 32.5285 67.0677 32.4731C66.9131 32.4796 66.7528 32.5114 66.5868 32.5683C66.4208 32.6237 66.2767 32.6896 66.1547 32.7661C66.0342 32.841 65.9349 32.9191 65.8568 33.0005C65.7787 33.0818 65.7396 33.1502 65.7396 33.2055ZM67.224 31.0864C67.2793 31.0864 67.3274 31.1084 67.368 31.1523C67.4087 31.1946 67.4291 31.2614 67.4291 31.3525C67.4291 31.442 67.39 31.5332 67.3119 31.6259C67.2338 31.7187 67.128 31.7651 66.9945 31.7651C66.931 31.7651 66.8789 31.7431 66.8383 31.6992C66.7992 31.6536 66.7797 31.5885 66.7797 31.5039C66.7797 31.4192 66.8195 31.3289 66.8993 31.2329C66.979 31.1352 67.0873 31.0864 67.224 31.0864Z" fill="black"/>
<path d="M32 45.6667V48H30V41" stroke="black" stroke-width="0.1"/>
<path d="M32.5 46V48H34.5V46" stroke="black" stroke-width="0.1"/>
<path d="M35 46V48H36.5V42" stroke="black" stroke-width="0.1"/>
<path d="M37 42V48H39V46" stroke="black" stroke-width="0.1"/>
<path d="M47.5 46V48H49V46V45.5" stroke="black" stroke-width="0.1"/>
<path d="M49.5 45.5V48H51V42" stroke="black" stroke-width="0.1"/>
<path d="M55.5 46V48H57V45.5V42" stroke="black" stroke-width="0.1"/>
<path d="M53.5 45.5V48H55V42" stroke="black" stroke-width="0.1"/>
<path d="M65.5 42V48H67V42" stroke="black" stroke-width="0.1"/>
<path d="M67 41H55V42H67V41Z" fill="black" stroke="black" stroke-width="0.1"/>
<path d="M53 41.5V48H51.5V41.5" stroke="black" stroke-width="0.1"/>
<path d="M51 42.5V41.5" stroke="black" stroke-width="0.1"/>
<path d="M39.5 46V41.5" stroke="black" stroke-width="0.1"/>
<path d="M35 46.5V41.5" stroke="black" stroke-width="0.1"/>
</svg>
