<svg width="280" height="86" viewBox="0 0 280 86" fill="none" xmlns="http://www.w3.org/2000/svg">
<g id="Logo scheme" clip-path="url(#clip0)">
<g id="LogoFinal">
<g id="Rectangle 2" filter="url(#filter0_if)">
<path d="M0 16C0 8.45753 0 4.68629 2.34315 2.34315C4.68629 0 8.45753 0 16 0H264C271.542 0 275.314 0 277.657 2.34315C280 4.68629 280 8.45753 280 16V70C280 77.5425 280 81.3137 277.657 83.6569C275.314 86 271.542 86 264 86H16C8.45753 86 4.68629 86 2.34315 83.6569C0 81.3137 0 77.5425 0 70V16Z" fill="#DADDDE"/>
<path d="M16 0.005H264C267.771 0.005 270.599 0.00501062 272.777 0.297849C274.955 0.590667 276.483 1.17619 277.653 2.34668C278.824 3.51717 279.409 5.04453 279.702 7.22249C279.995 9.40059 279.995 12.2286 279.995 16V70C279.995 73.7714 279.995 76.5994 279.702 78.7775C279.409 80.9555 278.824 82.4828 277.653 83.6533C276.483 84.8238 274.955 85.4093 272.777 85.7021C270.599 85.995 267.771 85.995 264 85.995H16C12.2286 85.995 9.40059 85.995 7.22249 85.7021C5.04453 85.4093 3.51717 84.8238 2.34668 83.6533C1.17619 82.4828 0.590667 80.9555 0.297849 78.7775C0.00501062 76.5994 0.005 73.7714 0.005 70V16C0.005 12.2286 0.00501062 9.40059 0.297849 7.22249C0.590667 5.04454 1.17619 3.51717 2.34668 2.34668C3.51717 1.17619 5.04453 0.590667 7.22249 0.297849C9.40059 0.00501062 12.2286 0.005 16 0.005Z" stroke="black" stroke-width="0.01"/>
</g>
<g id="Marius &#197;&#189;ebrauskas">
<path d="M172.443 69.4688L175.232 76.4297L178.021 69.4688H179.48V78H178.355V74.6777L178.461 71.0918L175.66 78H174.799L172.004 71.1094L172.115 74.6777V78H170.99V69.4688H172.443ZM185.211 78C185.148 77.875 185.098 77.6523 185.059 77.332C184.555 77.8555 183.953 78.1172 183.254 78.1172C182.629 78.1172 182.115 77.9414 181.713 77.5898C181.314 77.2344 181.115 76.7852 181.115 76.2422C181.115 75.582 181.365 75.0703 181.865 74.707C182.369 74.3398 183.076 74.1562 183.986 74.1562H185.041V73.6582C185.041 73.2793 184.928 72.9785 184.701 72.7559C184.475 72.5293 184.141 72.416 183.699 72.416C183.312 72.416 182.988 72.5137 182.727 72.709C182.465 72.9043 182.334 73.1406 182.334 73.418H181.244C181.244 73.1016 181.355 72.7969 181.578 72.5039C181.805 72.207 182.109 71.9727 182.492 71.8008C182.879 71.6289 183.303 71.543 183.764 71.543C184.494 71.543 185.066 71.7266 185.48 72.0938C185.895 72.457 186.109 72.959 186.125 73.5996V76.5176C186.125 77.0996 186.199 77.5625 186.348 77.9062V78H185.211ZM183.412 77.1738C183.752 77.1738 184.074 77.0859 184.379 76.9102C184.684 76.7344 184.904 76.5059 185.041 76.2246V74.9238H184.191C182.863 74.9238 182.199 75.3125 182.199 76.0898C182.199 76.4297 182.312 76.6953 182.539 76.8867C182.766 77.0781 183.057 77.1738 183.412 77.1738ZM190.889 72.6328C190.725 72.6055 190.547 72.5918 190.355 72.5918C189.645 72.5918 189.162 72.8945 188.908 73.5V78H187.824V71.6602H188.879L188.896 72.3926C189.252 71.8262 189.756 71.543 190.408 71.543C190.619 71.543 190.779 71.5703 190.889 71.625V72.6328ZM193.068 78H191.984V71.6602H193.068V78ZM191.896 69.9785C191.896 69.8027 191.949 69.6543 192.055 69.5332C192.164 69.4121 192.324 69.3516 192.535 69.3516C192.746 69.3516 192.906 69.4121 193.016 69.5332C193.125 69.6543 193.18 69.8027 193.18 69.9785C193.18 70.1543 193.125 70.3008 193.016 70.418C192.906 70.5352 192.746 70.5938 192.535 70.5938C192.324 70.5938 192.164 70.5352 192.055 70.418C191.949 70.3008 191.896 70.1543 191.896 69.9785ZM198.723 77.373C198.301 77.8691 197.682 78.1172 196.865 78.1172C196.189 78.1172 195.674 77.9219 195.318 77.5312C194.967 77.1367 194.789 76.5547 194.785 75.7852V71.6602H195.869V75.7559C195.869 76.7168 196.26 77.1973 197.041 77.1973C197.869 77.1973 198.42 76.8887 198.693 76.2715V71.6602H199.777V78H198.746L198.723 77.373ZM205.121 76.3184C205.121 76.0254 205.01 75.7988 204.787 75.6387C204.568 75.4746 204.184 75.334 203.633 75.2168C203.086 75.0996 202.65 74.959 202.326 74.7949C202.006 74.6309 201.768 74.4355 201.611 74.209C201.459 73.9824 201.383 73.7129 201.383 73.4004C201.383 72.8809 201.602 72.4414 202.039 72.082C202.48 71.7227 203.043 71.543 203.727 71.543C204.445 71.543 205.027 71.7285 205.473 72.0996C205.922 72.4707 206.146 72.9453 206.146 73.5234H205.057C205.057 73.2266 204.93 72.9707 204.676 72.7559C204.426 72.541 204.109 72.4336 203.727 72.4336C203.332 72.4336 203.023 72.5195 202.801 72.6914C202.578 72.8633 202.467 73.0879 202.467 73.3652C202.467 73.627 202.57 73.8242 202.777 73.957C202.984 74.0898 203.357 74.2168 203.896 74.3379C204.439 74.459 204.879 74.6035 205.215 74.7715C205.551 74.9395 205.799 75.1426 205.959 75.3809C206.123 75.6152 206.205 75.9023 206.205 76.2422C206.205 76.8086 205.979 77.2637 205.525 77.6074C205.072 77.9473 204.484 78.1172 203.762 78.1172C203.254 78.1172 202.805 78.0273 202.414 77.8477C202.023 77.668 201.717 77.418 201.494 77.0977C201.275 76.7734 201.166 76.4238 201.166 76.0488H202.25C202.27 76.4121 202.414 76.7012 202.684 76.916C202.957 77.127 203.316 77.2324 203.762 77.2324C204.172 77.2324 204.5 77.1504 204.746 76.9863C204.996 76.8184 205.121 76.5957 205.121 76.3184ZM211.607 77.0801H216.488V78H210.277V77.1562L214.953 70.3945H210.354V69.4688H216.301V70.2949L211.607 77.0801ZM213.377 68.1797L214.256 67.1836H215.193V67.2422L213.705 68.8477H213.043L211.572 67.2422V67.1836H212.492L213.377 68.1797ZM220.279 78.1172C219.42 78.1172 218.721 77.8359 218.182 77.2734C217.643 76.707 217.373 75.9512 217.373 75.0059V74.8066C217.373 74.1777 217.492 73.6172 217.73 73.125C217.973 72.6289 218.309 72.2422 218.738 71.9648C219.172 71.6836 219.641 71.543 220.145 71.543C220.969 71.543 221.609 71.8145 222.066 72.3574C222.523 72.9004 222.752 73.6777 222.752 74.6895V75.1406H218.457C218.473 75.7656 218.654 76.2715 219.002 76.6582C219.354 77.041 219.799 77.2324 220.338 77.2324C220.721 77.2324 221.045 77.1543 221.311 76.998C221.576 76.8418 221.809 76.6348 222.008 76.377L222.67 76.8926C222.139 77.709 221.342 78.1172 220.279 78.1172ZM220.145 72.4336C219.707 72.4336 219.34 72.5938 219.043 72.9141C218.746 73.2305 218.562 73.6758 218.492 74.25H221.668V74.168C221.637 73.6172 221.488 73.1914 221.223 72.8906C220.957 72.5859 220.598 72.4336 220.145 72.4336ZM229.379 74.9004C229.379 75.8691 229.156 76.6484 228.711 77.2383C228.266 77.8242 227.668 78.1172 226.918 78.1172C226.117 78.1172 225.498 77.834 225.061 77.2676L225.008 78H224.012V69H225.096V72.3574C225.533 71.8145 226.137 71.543 226.906 71.543C227.676 71.543 228.279 71.834 228.717 72.416C229.158 72.998 229.379 73.7949 229.379 74.8066V74.9004ZM228.295 74.7773C228.295 74.0391 228.152 73.4688 227.867 73.0664C227.582 72.6641 227.172 72.4629 226.637 72.4629C225.922 72.4629 225.408 72.7949 225.096 73.459V76.2012C225.428 76.8652 225.945 77.1973 226.648 77.1973C227.168 77.1973 227.572 76.9961 227.861 76.5938C228.15 76.1914 228.295 75.5859 228.295 74.7773ZM233.814 72.6328C233.65 72.6055 233.473 72.5918 233.281 72.5918C232.57 72.5918 232.088 72.8945 231.834 73.5V78H230.75V71.6602H231.805L231.822 72.3926C232.178 71.8262 232.682 71.543 233.334 71.543C233.545 71.543 233.705 71.5703 233.814 71.625V72.6328ZM238.496 78C238.434 77.875 238.383 77.6523 238.344 77.332C237.84 77.8555 237.238 78.1172 236.539 78.1172C235.914 78.1172 235.4 77.9414 234.998 77.5898C234.6 77.2344 234.4 76.7852 234.4 76.2422C234.4 75.582 234.65 75.0703 235.15 74.707C235.654 74.3398 236.361 74.1562 237.271 74.1562H238.326V73.6582C238.326 73.2793 238.213 72.9785 237.986 72.7559C237.76 72.5293 237.426 72.416 236.984 72.416C236.598 72.416 236.273 72.5137 236.012 72.709C235.75 72.9043 235.619 73.1406 235.619 73.418H234.529C234.529 73.1016 234.641 72.7969 234.863 72.5039C235.09 72.207 235.395 71.9727 235.777 71.8008C236.164 71.6289 236.588 71.543 237.049 71.543C237.779 71.543 238.352 71.7266 238.766 72.0938C239.18 72.457 239.395 72.959 239.41 73.5996V76.5176C239.41 77.0996 239.484 77.5625 239.633 77.9062V78H238.496ZM236.697 77.1738C237.037 77.1738 237.359 77.0859 237.664 76.9102C237.969 76.7344 238.189 76.5059 238.326 76.2246V74.9238H237.477C236.148 74.9238 235.484 75.3125 235.484 76.0898C235.484 76.4297 235.598 76.6953 235.824 76.8867C236.051 77.0781 236.342 77.1738 236.697 77.1738ZM245.023 77.373C244.602 77.8691 243.982 78.1172 243.166 78.1172C242.49 78.1172 241.975 77.9219 241.619 77.5312C241.268 77.1367 241.09 76.5547 241.086 75.7852V71.6602H242.17V75.7559C242.17 76.7168 242.561 77.1973 243.342 77.1973C244.17 77.1973 244.721 76.8887 244.994 76.2715V71.6602H246.078V78H245.047L245.023 77.373ZM251.422 76.3184C251.422 76.0254 251.311 75.7988 251.088 75.6387C250.869 75.4746 250.484 75.334 249.934 75.2168C249.387 75.0996 248.951 74.959 248.627 74.7949C248.307 74.6309 248.068 74.4355 247.912 74.209C247.76 73.9824 247.684 73.7129 247.684 73.4004C247.684 72.8809 247.902 72.4414 248.34 72.082C248.781 71.7227 249.344 71.543 250.027 71.543C250.746 71.543 251.328 71.7285 251.773 72.0996C252.223 72.4707 252.447 72.9453 252.447 73.5234H251.357C251.357 73.2266 251.23 72.9707 250.977 72.7559C250.727 72.541 250.41 72.4336 250.027 72.4336C249.633 72.4336 249.324 72.5195 249.102 72.6914C248.879 72.8633 248.768 73.0879 248.768 73.3652C248.768 73.627 248.871 73.8242 249.078 73.957C249.285 74.0898 249.658 74.2168 250.197 74.3379C250.74 74.459 251.18 74.6035 251.516 74.7715C251.852 74.9395 252.1 75.1426 252.26 75.3809C252.424 75.6152 252.506 75.9023 252.506 76.2422C252.506 76.8086 252.279 77.2637 251.826 77.6074C251.373 77.9473 250.785 78.1172 250.062 78.1172C249.555 78.1172 249.105 78.0273 248.715 77.8477C248.324 77.668 248.018 77.418 247.795 77.0977C247.576 76.7734 247.467 76.4238 247.467 76.0488H248.551C248.57 76.4121 248.715 76.7012 248.984 76.916C249.258 77.127 249.617 77.2324 250.062 77.2324C250.473 77.2324 250.801 77.1504 251.047 76.9863C251.297 76.8184 251.422 76.5957 251.422 76.3184ZM255.688 75.0645L255.008 75.7734V78H253.924V69H255.008V74.4434L255.588 73.7461L257.562 71.6602H258.881L256.414 74.3086L259.168 78H257.896L255.688 75.0645ZM263.914 78C263.852 77.875 263.801 77.6523 263.762 77.332C263.258 77.8555 262.656 78.1172 261.957 78.1172C261.332 78.1172 260.818 77.9414 260.416 77.5898C260.018 77.2344 259.818 76.7852 259.818 76.2422C259.818 75.582 260.068 75.0703 260.568 74.707C261.072 74.3398 261.779 74.1562 262.689 74.1562H263.744V73.6582C263.744 73.2793 263.631 72.9785 263.404 72.7559C263.178 72.5293 262.844 72.416 262.402 72.416C262.016 72.416 261.691 72.5137 261.43 72.709C261.168 72.9043 261.037 73.1406 261.037 73.418H259.947C259.947 73.1016 260.059 72.7969 260.281 72.5039C260.508 72.207 260.812 71.9727 261.195 71.8008C261.582 71.6289 262.006 71.543 262.467 71.543C263.197 71.543 263.77 71.7266 264.184 72.0938C264.598 72.457 264.812 72.959 264.828 73.5996V76.5176C264.828 77.0996 264.902 77.5625 265.051 77.9062V78H263.914ZM262.115 77.1738C262.455 77.1738 262.777 77.0859 263.082 76.9102C263.387 76.7344 263.607 76.5059 263.744 76.2246V74.9238H262.895C261.566 74.9238 260.902 75.3125 260.902 76.0898C260.902 76.4297 261.016 76.6953 261.242 76.8867C261.469 77.0781 261.76 77.1738 262.115 77.1738ZM270.219 76.3184C270.219 76.0254 270.107 75.7988 269.885 75.6387C269.666 75.4746 269.281 75.334 268.73 75.2168C268.184 75.0996 267.748 74.959 267.424 74.7949C267.104 74.6309 266.865 74.4355 266.709 74.209C266.557 73.9824 266.48 73.7129 266.48 73.4004C266.48 72.8809 266.699 72.4414 267.137 72.082C267.578 71.7227 268.141 71.543 268.824 71.543C269.543 71.543 270.125 71.7285 270.57 72.0996C271.02 72.4707 271.244 72.9453 271.244 73.5234H270.154C270.154 73.2266 270.027 72.9707 269.773 72.7559C269.523 72.541 269.207 72.4336 268.824 72.4336C268.43 72.4336 268.121 72.5195 267.898 72.6914C267.676 72.8633 267.564 73.0879 267.564 73.3652C267.564 73.627 267.668 73.8242 267.875 73.957C268.082 74.0898 268.455 74.2168 268.994 74.3379C269.537 74.459 269.977 74.6035 270.312 74.7715C270.648 74.9395 270.896 75.1426 271.057 75.3809C271.221 75.6152 271.303 75.9023 271.303 76.2422C271.303 76.8086 271.076 77.2637 270.623 77.6074C270.17 77.9473 269.582 78.1172 268.859 78.1172C268.352 78.1172 267.902 78.0273 267.512 77.8477C267.121 77.668 266.814 77.418 266.592 77.0977C266.373 76.7734 266.264 76.4238 266.264 76.0488H267.348C267.367 76.4121 267.512 76.7012 267.781 76.916C268.055 77.127 268.414 77.2324 268.859 77.2324C269.27 77.2324 269.598 77.1504 269.844 76.9863C270.094 76.8184 270.219 76.5957 270.219 76.3184Z" fill="black"/>
<path d="M172.443 69.4688L173.372 69.0968L173.12 68.4688H172.443V69.4688ZM175.232 76.4297L174.304 76.8016L175.232 79.1184L176.161 76.8016L175.232 76.4297ZM178.021 69.4688V68.4688H177.345L177.093 69.0968L178.021 69.4688ZM179.48 69.4688H180.48V68.4688H179.48V69.4688ZM179.48 78V79H180.48V78H179.48ZM178.355 78H177.355V79H178.355V78ZM178.355 74.6777L177.356 74.6483L177.355 74.663V74.6777H178.355ZM178.461 71.0918L179.461 71.1212L177.534 70.7161L178.461 71.0918ZM175.66 78V79H176.334L176.587 78.3757L175.66 78ZM174.799 78L173.872 78.3759L174.125 79H174.799V78ZM172.004 71.1094L172.931 70.7335L171.004 71.1406L172.004 71.1094ZM172.115 74.6777H173.115V74.6621L173.115 74.6466L172.115 74.6777ZM172.115 78V79H173.115V78H172.115ZM170.99 78H169.99V79H170.99V78ZM170.99 69.4688V68.4688H169.99V69.4688H170.99ZM171.515 69.8407L174.304 76.8016L176.161 76.0578L173.372 69.0968L171.515 69.8407ZM176.161 76.8016L178.95 69.8407L177.093 69.0968L174.304 76.0578L176.161 76.8016ZM178.021 70.4688H179.48V68.4688H178.021V70.4688ZM178.48 69.4688V78H180.48V69.4688H178.48ZM179.48 77H178.355V79H179.48V77ZM179.355 78V74.6777H177.355V78H179.355ZM179.355 74.7071L179.461 71.1212L177.461 71.0624L177.356 74.6483L179.355 74.7071ZM177.534 70.7161L174.733 77.6243L176.587 78.3757L179.388 71.4675L177.534 70.7161ZM175.66 77H174.799V79H175.66V77ZM175.726 77.6241L172.931 70.7335L171.077 71.4852L173.872 78.3759L175.726 77.6241ZM171.004 71.1406L171.116 74.7089L173.115 74.6466L173.003 71.0782L171.004 71.1406ZM171.115 74.6777V78H173.115V74.6777H171.115ZM172.115 77H170.99V79H172.115V77ZM171.99 78V69.4688H169.99V78H171.99ZM170.99 70.4688H172.443V68.4688H170.99V70.4688ZM185.211 78L184.317 78.4472L184.593 79H185.211V78ZM185.059 77.332L186.051 77.211L185.797 75.1235L184.338 76.6385L185.059 77.332ZM181.713 77.5898L181.047 78.3361L181.055 78.3429L181.713 77.5898ZM181.865 74.707L182.453 75.516L182.454 75.5152L181.865 74.707ZM185.041 74.1562V75.1562H186.041V74.1562H185.041ZM184.701 72.7559L183.994 73.463L184 73.4691L184.701 72.7559ZM182.334 73.418V74.418H183.334V73.418H182.334ZM181.244 73.418H180.244V74.418H181.244V73.418ZM181.578 72.5039L180.783 71.8972L180.782 71.8988L181.578 72.5039ZM182.492 71.8008L182.086 70.887L182.083 70.8885L182.492 71.8008ZM185.48 72.0938L184.817 72.8419L184.821 72.8454L185.48 72.0938ZM186.125 73.5996H187.125V73.5874L187.125 73.5752L186.125 73.5996ZM186.348 77.9062H187.348V77.6996L187.266 77.5098L186.348 77.9062ZM186.348 78V79H187.348V78H186.348ZM185.041 76.2246L185.94 76.6618L186.041 76.4548V76.2246H185.041ZM185.041 74.9238H186.041V73.9238H185.041V74.9238ZM186.105 77.5528C186.125 77.5923 186.118 77.5928 186.101 77.5169C186.086 77.4495 186.068 77.3498 186.051 77.211L184.066 77.4531C184.105 77.7772 184.17 78.1537 184.317 78.4472L186.105 77.5528ZM184.338 76.6385C184.014 76.9747 183.67 77.1172 183.254 77.1172V79.1172C184.237 79.1172 185.095 78.7362 185.779 78.0256L184.338 76.6385ZM183.254 77.1172C182.827 77.1172 182.561 77.0027 182.371 76.8368L181.055 78.3429C181.67 78.8801 182.43 79.1172 183.254 79.1172V77.1172ZM182.379 76.8436C182.197 76.6815 182.115 76.5057 182.115 76.2422H180.115C180.115 77.0647 180.432 77.7872 181.047 78.336L182.379 76.8436ZM182.115 76.2422C182.115 75.8766 182.232 75.6766 182.453 75.516L181.277 73.898C180.498 74.464 180.115 75.2875 180.115 76.2422H182.115ZM182.454 75.5152C182.725 75.3182 183.195 75.1562 183.986 75.1562V73.1562C182.958 73.1562 182.014 73.3615 181.276 73.8988L182.454 75.5152ZM183.986 75.1562H185.041V73.1562H183.986V75.1562ZM186.041 74.1562V73.6582H184.041V74.1562H186.041ZM186.041 73.6582C186.041 73.0667 185.856 72.489 185.402 72.0426L184 73.4691C184.009 73.4774 184.014 73.4847 184.02 73.5009C184.028 73.5204 184.041 73.5681 184.041 73.6582H186.041ZM185.408 72.0488C184.933 71.573 184.304 71.416 183.699 71.416V73.416C183.837 73.416 183.918 73.434 183.96 73.448C183.996 73.4604 184 73.4688 183.994 73.463L185.408 72.0488ZM183.699 71.416C183.138 71.416 182.593 71.5608 182.128 71.9076L183.325 73.5104C183.383 73.4665 183.487 73.416 183.699 73.416V71.416ZM182.128 71.9076C181.665 72.2537 181.334 72.7666 181.334 73.418H183.334C183.334 73.428 183.333 73.4444 183.328 73.4645C183.322 73.4848 183.315 73.5028 183.307 73.5171C183.291 73.5462 183.284 73.5406 183.325 73.5104L182.128 71.9076ZM182.334 72.418H181.244V74.418H182.334V72.418ZM182.244 73.418C182.244 73.3545 182.261 73.2575 182.374 73.109L180.782 71.8988C180.449 72.3363 180.244 72.8487 180.244 73.418H182.244ZM182.373 73.1106C182.487 72.9617 182.652 72.8253 182.902 72.7131L182.083 70.8885C181.567 71.12 181.123 71.4523 180.783 71.8972L182.373 73.1106ZM182.898 72.7146C183.146 72.6045 183.43 72.543 183.764 72.543V70.543C183.175 70.543 182.612 70.6534 182.086 70.887L182.898 72.7146ZM183.764 72.543C184.329 72.543 184.638 72.683 184.817 72.8419L186.144 71.3456C185.495 70.7701 184.659 70.543 183.764 70.543V72.543ZM184.821 72.8454C184.99 72.9939 185.115 73.2127 185.125 73.624L187.125 73.5752C187.103 72.7052 186.799 71.9202 186.14 71.3421L184.821 72.8454ZM185.125 73.5996V76.5176H187.125V73.5996H185.125ZM185.125 76.5176C185.125 77.1683 185.206 77.7838 185.43 78.3027L187.266 77.5098C187.193 77.3412 187.125 77.0309 187.125 76.5176H185.125ZM185.348 77.9062V78H187.348V77.9062H185.348ZM186.348 77H185.211V79H186.348V77ZM183.412 78.1738C183.934 78.1738 184.428 78.0366 184.879 77.7763L183.879 76.044C183.721 76.1353 183.57 76.1738 183.412 76.1738V78.1738ZM184.879 77.7763C185.334 77.5136 185.706 77.1447 185.94 76.6618L184.142 75.7874C184.103 75.867 184.033 75.9551 183.879 76.044L184.879 77.7763ZM186.041 76.2246V74.9238H184.041V76.2246H186.041ZM185.041 73.9238H184.191V75.9238H185.041V73.9238ZM184.191 73.9238C183.463 73.9238 182.752 74.0247 182.192 74.3523C181.55 74.7283 181.199 75.3505 181.199 76.0898H183.199C183.199 76.0412 183.208 76.0471 183.193 76.0746C183.177 76.1026 183.165 76.1001 183.202 76.0784C183.307 76.0173 183.592 75.9238 184.191 75.9238V73.9238ZM181.199 76.0898C181.199 76.6762 181.408 77.2403 181.894 77.6506L183.184 76.1228C183.184 76.1224 183.188 76.1256 183.193 76.1325C183.198 76.1396 183.202 76.1466 183.204 76.1517C183.206 76.1565 183.205 76.1558 183.203 76.1469C183.202 76.1377 183.199 76.1194 183.199 76.0898H181.199ZM181.894 77.6506C182.335 78.0234 182.869 78.1738 183.412 78.1738V76.1738C183.244 76.1738 183.196 76.1329 183.184 76.1228L181.894 77.6506ZM190.889 72.6328L190.724 73.6192L191.889 73.8133V72.6328H190.889ZM188.908 73.5L187.986 73.1133L187.908 73.2988V73.5H188.908ZM188.908 78V79H189.908V78H188.908ZM187.824 78H186.824V79H187.824V78ZM187.824 71.6602V70.6602H186.824V71.6602H187.824ZM188.879 71.6602L189.879 71.6362L189.855 70.6602H188.879V71.6602ZM188.896 72.3926L187.897 72.4166L187.977 75.7397L189.743 72.9242L188.896 72.3926ZM190.889 71.625H191.889V71.007L191.336 70.7306L190.889 71.625ZM191.053 71.6464C190.827 71.6088 190.594 71.5918 190.355 71.5918V73.5918C190.5 73.5918 190.622 73.6021 190.724 73.6192L191.053 71.6464ZM190.355 71.5918C189.858 71.5918 189.365 71.6984 188.929 71.9718C188.487 72.2488 188.18 72.6505 187.986 73.1133L189.83 73.8867C189.89 73.744 189.951 73.6916 189.992 73.6659C190.039 73.6366 190.142 73.5918 190.355 73.5918V71.5918ZM187.908 73.5V78H189.908V73.5H187.908ZM188.908 77H187.824V79H188.908V77ZM188.824 78V71.6602H186.824V78H188.824ZM187.824 72.6602H188.879V70.6602H187.824V72.6602ZM187.879 71.6841L187.897 72.4166L189.896 72.3686L189.879 71.6362L187.879 71.6841ZM189.743 72.9242C189.922 72.6403 190.11 72.543 190.408 72.543V70.543C189.401 70.543 188.582 71.012 188.049 71.861L189.743 72.9242ZM190.408 72.543C190.44 72.543 190.464 72.544 190.483 72.5454C190.502 72.5468 190.514 72.5484 190.518 72.5492C190.523 72.55 190.518 72.5495 190.506 72.5458C190.494 72.5421 190.471 72.5343 190.441 72.5194L191.336 70.7306C191.021 70.5732 190.677 70.543 190.408 70.543V72.543ZM189.889 71.625V72.6328H191.889V71.625H189.889ZM193.068 78V79H194.068V78H193.068ZM191.984 78H190.984V79H191.984V78ZM191.984 71.6602V70.6602H190.984V71.6602H191.984ZM193.068 71.6602H194.068V70.6602H193.068V71.6602ZM192.055 69.5332L191.313 68.8629L191.307 68.8696L191.301 68.8764L192.055 69.5332ZM192.055 70.418L191.311 71.0869L191.317 71.0937L191.324 71.1003L192.055 70.418ZM193.068 77H191.984V79H193.068V77ZM192.984 78V71.6602H190.984V78H192.984ZM191.984 72.6602H193.068V70.6602H191.984V72.6602ZM192.068 71.6602V78H194.068V71.6602H192.068ZM192.896 69.9785C192.896 69.9916 192.894 70.0251 192.878 70.0701C192.862 70.1164 192.837 70.1578 192.809 70.19L191.301 68.8764C191.021 69.1973 190.896 69.5859 190.896 69.9785H192.896ZM192.797 70.2035C192.74 70.2668 192.672 70.3093 192.61 70.3324C192.555 70.3534 192.523 70.3516 192.535 70.3516V68.3516C192.129 68.3516 191.663 68.4745 191.313 68.8629L192.797 70.2035ZM192.535 70.3516C192.547 70.3516 192.516 70.3534 192.46 70.3324C192.399 70.3093 192.331 70.2668 192.274 70.2035L193.758 68.8629C193.407 68.4745 192.941 68.3516 192.535 68.3516V70.3516ZM192.274 70.2035C192.245 70.1724 192.218 70.1303 192.2 70.0811C192.183 70.033 192.18 69.9955 192.18 69.9785H194.18C194.18 69.5759 194.047 69.1827 193.758 68.8629L192.274 70.2035ZM192.18 69.9785C192.18 69.9617 192.183 69.9221 192.202 69.8705C192.222 69.8172 192.252 69.7708 192.285 69.7357L193.747 71.1003C194.046 70.7793 194.18 70.381 194.18 69.9785H192.18ZM192.285 69.7357C192.344 69.6721 192.412 69.6318 192.47 69.6107C192.522 69.5914 192.55 69.5938 192.535 69.5938V71.5938C192.931 71.5938 193.393 71.4787 193.747 71.1003L192.285 69.7357ZM192.535 69.5938C192.52 69.5938 192.548 69.5914 192.6 69.6107C192.658 69.6318 192.726 69.6721 192.786 69.7357L191.324 71.1003C191.677 71.4787 192.139 71.5938 192.535 71.5938V69.5938ZM192.798 69.749C192.831 69.7854 192.859 69.8313 192.877 69.8815C192.894 69.93 192.896 69.9657 192.896 69.9785H190.896C190.896 70.3708 191.021 70.7646 191.311 71.0869L192.798 69.749ZM198.723 77.373L199.722 77.3357L199.626 74.7672L197.961 76.7252L198.723 77.373ZM195.318 77.5312L194.572 78.1966L194.579 78.2043L195.318 77.5312ZM194.785 75.7852H193.785L193.785 75.7902L194.785 75.7852ZM194.785 71.6602V70.6602H193.785V71.6602H194.785ZM195.869 71.6602H196.869V70.6602H195.869V71.6602ZM198.693 76.2715L199.608 76.6765L199.693 76.4831V76.2715H198.693ZM198.693 71.6602V70.6602H197.693V71.6602H198.693ZM199.777 71.6602H200.777V70.6602H199.777V71.6602ZM199.777 78V79H200.777V78H199.777ZM198.746 78L197.747 78.0374L197.783 79H198.746V78ZM197.961 76.7252C197.776 76.943 197.469 77.1172 196.865 77.1172V79.1172C197.894 79.1172 198.826 78.7953 199.484 78.0209L197.961 76.7252ZM196.865 77.1172C196.387 77.1172 196.174 76.9858 196.058 76.8582L194.579 78.2043C195.174 78.858 195.992 79.1172 196.865 79.1172V77.1172ZM196.065 76.866C195.936 76.7209 195.788 76.4151 195.785 75.7801L193.785 75.7902C193.79 76.6943 193.998 77.5525 194.572 78.1965L196.065 76.866ZM195.785 75.7852V71.6602H193.785V75.7852H195.785ZM194.785 72.6602H195.869V70.6602H194.785V72.6602ZM194.869 71.6602V75.7559H196.869V71.6602H194.869ZM194.869 75.7559C194.869 76.346 194.985 76.9742 195.386 77.4677C195.82 78.0009 196.435 78.1973 197.041 78.1973V76.1973C196.946 76.1973 196.909 76.1826 196.908 76.1819C196.907 76.1818 196.913 76.184 196.921 76.19C196.929 76.196 196.935 76.2021 196.938 76.2061C196.949 76.2191 196.869 76.1266 196.869 75.7559H194.869ZM197.041 78.1973C197.575 78.1973 198.1 78.0983 198.564 77.8382C199.041 77.5707 199.39 77.1683 199.608 76.6765L197.779 75.8664C197.723 75.9919 197.66 76.0523 197.586 76.0934C197.5 76.142 197.336 76.1973 197.041 76.1973V78.1973ZM199.693 76.2715V71.6602H197.693V76.2715H199.693ZM198.693 72.6602H199.777V70.6602H198.693V72.6602ZM198.777 71.6602V78H200.777V71.6602H198.777ZM199.777 77H198.746V79H199.777V77ZM199.745 77.9626L199.722 77.3357L197.723 77.4104L197.747 78.0374L199.745 77.9626ZM204.787 75.6387L204.187 76.4387L204.195 76.4447L204.203 76.4505L204.787 75.6387ZM203.633 75.2168L203.423 76.1946L203.425 76.1949L203.633 75.2168ZM202.326 74.7949L201.87 75.685L201.875 75.6872L202.326 74.7949ZM201.611 74.209L200.781 74.767L200.788 74.7767L201.611 74.209ZM202.039 72.082L201.408 71.3065L201.404 71.3093L202.039 72.082ZM205.473 72.0996L204.832 72.8678L204.836 72.8706L205.473 72.0996ZM206.146 73.5234V74.5234H207.146V73.5234H206.146ZM205.057 73.5234H204.057V74.5234H205.057V73.5234ZM204.676 72.7559L204.024 73.5143L204.03 73.5192L204.676 72.7559ZM203.896 74.3379L203.677 75.3136L203.679 75.3139L203.896 74.3379ZM205.959 75.3809L205.129 75.9387L205.134 75.9466L205.14 75.9543L205.959 75.3809ZM205.525 77.6074L206.125 78.4074L206.13 78.4041L205.525 77.6074ZM201.494 77.0977L200.665 77.657L200.673 77.6684L201.494 77.0977ZM201.166 76.0488V75.0488H200.166V76.0488H201.166ZM202.25 76.0488L203.249 75.9951L203.198 75.0488H202.25V76.0488ZM202.684 76.916L202.06 77.698L202.066 77.7029L202.073 77.7078L202.684 76.916ZM204.746 76.9863L205.301 77.8184L205.304 77.8164L204.746 76.9863ZM206.121 76.3184C206.121 75.7293 205.875 75.1895 205.371 74.8269L204.203 76.4505C204.2 76.4481 204.189 76.44 204.176 76.4249C204.163 76.4094 204.15 76.3906 204.14 76.3697C204.118 76.3253 204.121 76.3003 204.121 76.3184H206.121ZM205.387 74.8387C204.983 74.5359 204.415 74.3607 203.841 74.2387L203.425 76.1949C203.67 76.2471 203.856 76.2999 203.991 76.3494C204.058 76.3738 204.107 76.3954 204.141 76.4127C204.176 76.4303 204.189 76.44 204.187 76.4387L205.387 74.8387ZM203.842 74.239C203.34 74.1312 202.996 74.013 202.778 73.9027L201.875 75.6872C202.305 75.9049 202.832 76.068 203.423 76.1946L203.842 74.239ZM202.782 73.9049C202.565 73.7938 202.472 73.6962 202.435 73.6413L200.788 74.7767C201.063 75.1749 201.447 75.4679 201.87 75.685L202.782 73.9049ZM202.441 73.651C202.415 73.6124 202.383 73.5437 202.383 73.4004H200.383C200.383 73.882 200.503 74.3525 200.781 74.767L202.441 73.651ZM202.383 73.4004C202.383 73.2094 202.444 73.0436 202.674 72.8548L201.404 71.3093C200.759 71.8392 200.383 72.5523 200.383 73.4004H202.383ZM202.67 72.8575C202.899 72.671 203.225 72.543 203.727 72.543V70.543C202.861 70.543 202.061 70.7743 201.408 71.3065L202.67 72.8575ZM203.727 72.543C204.269 72.543 204.607 72.6798 204.832 72.8678L206.113 71.3314C205.448 70.7772 204.621 70.543 203.727 70.543V72.543ZM204.836 72.8706C205.057 73.0534 205.146 73.2463 205.146 73.5234H207.146C207.146 72.6443 206.787 71.888 206.11 71.3286L204.836 72.8706ZM206.146 72.5234H205.057V74.5234H206.146V72.5234ZM206.057 73.5234C206.057 72.8948 205.77 72.3716 205.322 71.9925L204.03 73.5192C204.05 73.5363 204.061 73.5482 204.065 73.5537C204.069 73.5589 204.068 73.5589 204.066 73.5534C204.063 73.5476 204.06 73.5402 204.058 73.5323C204.056 73.5246 204.057 73.521 204.057 73.5234H206.057ZM205.328 71.9974C204.867 71.602 204.308 71.4336 203.727 71.4336V73.4336C203.911 73.4336 203.984 73.48 204.024 73.5143L205.328 71.9974ZM203.727 71.4336C203.198 71.4336 202.646 71.5478 202.19 71.8998L203.412 73.483C203.401 73.4912 203.466 73.4336 203.727 73.4336V71.4336ZM202.19 71.8998C201.726 72.2579 201.467 72.7729 201.467 73.3652H203.467C203.467 73.364 203.466 73.393 203.446 73.4329C203.427 73.4723 203.406 73.4876 203.412 73.483L202.19 71.8998ZM201.467 73.3652C201.467 73.9414 201.722 74.4683 202.237 74.7987L203.317 73.1153C203.344 73.1325 203.393 73.1744 203.43 73.2448C203.466 73.3126 203.467 73.3625 203.467 73.3652H201.467ZM202.237 74.7987C202.605 75.0345 203.131 75.1908 203.677 75.3136L204.116 73.3622C203.868 73.3066 203.677 73.2536 203.535 73.2052C203.464 73.1812 203.411 73.1601 203.372 73.1429C203.333 73.1252 203.317 73.1152 203.317 73.1153L202.237 74.7987ZM203.679 75.3139C204.176 75.4249 204.53 75.5473 204.768 75.6659L205.662 73.8771C205.227 73.6597 204.702 73.4931 204.114 73.3619L203.679 75.3139ZM204.768 75.6659C204.995 75.7798 205.09 75.8813 205.129 75.9387L206.789 74.823C206.507 74.4038 206.106 74.0991 205.662 73.8771L204.768 75.6659ZM205.14 75.9543C205.165 75.991 205.205 76.0681 205.205 76.2422H207.205C207.205 75.7366 207.081 75.2395 206.778 74.8074L205.14 75.9543ZM205.205 76.2422C205.205 76.4942 205.126 76.6551 204.921 76.8107L206.13 78.4041C206.831 77.8722 207.205 77.1229 207.205 76.2422H205.205ZM204.925 76.8074C204.688 76.9855 204.328 77.1172 203.762 77.1172V79.1172C204.641 79.1172 205.457 78.9091 206.125 78.4074L204.925 76.8074ZM203.762 77.1172C203.372 77.1172 203.07 77.0486 202.832 76.9392L201.996 78.7561C202.539 79.0061 203.135 79.1172 203.762 79.1172V77.1172ZM202.832 76.9392C202.586 76.8262 202.426 76.686 202.315 76.5269L200.673 77.6684C201.008 78.1499 201.46 78.5097 201.996 78.7561L202.832 76.9392ZM202.323 76.5384C202.211 76.3718 202.166 76.2156 202.166 76.0488H200.166C200.166 76.632 200.34 77.175 200.665 77.657L202.323 76.5384ZM201.166 77.0488H202.25V75.0488H201.166V77.0488ZM201.251 76.1025C201.285 76.7331 201.554 77.2942 202.06 77.698L203.307 76.134C203.278 76.111 203.27 76.0969 203.267 76.0909C203.264 76.0835 203.252 76.0571 203.249 75.9951L201.251 76.1025ZM202.073 77.7078C202.566 78.0884 203.16 78.2324 203.762 78.2324V76.2324C203.473 76.2324 203.348 76.1655 203.294 76.1242L202.073 77.7078ZM203.762 78.2324C204.296 78.2324 204.838 78.1268 205.301 77.8184L204.191 76.1543C204.162 76.174 204.048 76.2324 203.762 76.2324V78.2324ZM205.304 77.8164C205.802 77.4815 206.121 76.9613 206.121 76.3184H204.121C204.121 76.3121 204.122 76.2962 204.128 76.2736C204.133 76.2505 204.143 76.2265 204.155 76.2038C204.182 76.1561 204.207 76.144 204.188 76.1563L205.304 77.8164ZM211.607 77.0801L210.785 76.5112L209.7 78.0801H211.607V77.0801ZM216.488 77.0801H217.488V76.0801H216.488V77.0801ZM216.488 78V79H217.488V78H216.488ZM210.277 78H209.277V79H210.277V78ZM210.277 77.1562L209.455 76.5875L209.277 76.8442V77.1562H210.277ZM214.953 70.3945L215.776 70.9633L216.86 69.3945H214.953V70.3945ZM210.354 70.3945H209.354V71.3945H210.354V70.3945ZM210.354 69.4688V68.4688H209.354V69.4688H210.354ZM216.301 69.4688H217.301V68.4688H216.301V69.4688ZM216.301 70.2949L217.123 70.8638L217.301 70.6071V70.2949H216.301ZM213.377 68.1797L212.629 68.8438L213.379 69.6883L214.127 68.8413L213.377 68.1797ZM214.256 67.1836V66.1836H213.805L213.506 66.522L214.256 67.1836ZM215.193 67.1836H216.193V66.1836H215.193V67.1836ZM215.193 67.2422L215.927 67.922L216.193 67.6344V67.2422H215.193ZM213.705 68.8477V69.8477H214.142L214.438 69.5275L213.705 68.8477ZM213.043 68.8477L212.306 69.5231L212.603 69.8477H213.043V68.8477ZM211.572 67.2422H210.572V67.631L210.835 67.9177L211.572 67.2422ZM211.572 67.1836V66.1836H210.572V67.1836H211.572ZM212.492 67.1836L213.24 66.5195L212.941 66.1836H212.492V67.1836ZM211.607 78.0801H216.488V76.0801H211.607V78.0801ZM215.488 77.0801V78H217.488V77.0801H215.488ZM216.488 77H210.277V79H216.488V77ZM211.277 78V77.1562H209.277V78H211.277ZM211.1 77.725L215.776 70.9633L214.131 69.8258L209.455 76.5875L211.1 77.725ZM214.953 69.3945H210.354V71.3945H214.953V69.3945ZM211.354 70.3945V69.4688H209.354V70.3945H211.354ZM210.354 70.4688H216.301V68.4688H210.354V70.4688ZM215.301 69.4688V70.2949H217.301V69.4688H215.301ZM215.478 69.726L210.785 76.5112L212.43 77.649L217.123 70.8638L215.478 69.726ZM214.127 68.8413L215.006 67.8452L213.506 66.522L212.627 67.5181L214.127 68.8413ZM214.256 68.1836H215.193V66.1836H214.256V68.1836ZM214.193 67.1836V67.2422H216.193V67.1836H214.193ZM214.46 66.5624L212.972 68.1678L214.438 69.5275L215.927 67.922L214.46 66.5624ZM213.705 67.8477H213.043V69.8477H213.705V67.8477ZM213.78 68.1722L212.31 66.5667L210.835 67.9177L212.306 69.5231L213.78 68.1722ZM212.572 67.2422V67.1836H210.572V67.2422H212.572ZM211.572 68.1836H212.492V66.1836H211.572V68.1836ZM211.745 67.8477L212.629 68.8438L214.125 67.5156L213.24 66.5195L211.745 67.8477ZM218.182 77.2734L217.457 77.9628L217.46 77.9653L218.182 77.2734ZM217.73 73.125L216.832 72.6863L216.83 72.6893L217.73 73.125ZM218.738 71.9648L219.281 72.805L219.282 72.8038L218.738 71.9648ZM222.752 75.1406V76.1406H223.752V75.1406H222.752ZM218.457 75.1406V74.1406H217.432L217.457 75.1656L218.457 75.1406ZM219.002 76.6582L218.258 77.3268L218.265 77.3346L219.002 76.6582ZM222.008 76.377L222.622 75.588L221.83 74.9712L221.217 75.7655L222.008 76.377ZM222.67 76.8926L223.508 77.438L224.009 76.668L223.284 76.1036L222.67 76.8926ZM219.043 72.9141L219.772 73.5983L219.776 73.5938L219.043 72.9141ZM218.492 74.25L217.5 74.1285L217.362 75.25H218.492V74.25ZM221.668 74.25V75.25H222.668V74.25H221.668ZM221.668 74.168H222.668V74.1396L222.666 74.1113L221.668 74.168ZM221.223 72.8906L220.469 73.5478L220.473 73.5526L221.223 72.8906ZM220.279 77.1172C219.661 77.1172 219.234 76.9259 218.904 76.5815L217.46 77.9653C218.208 78.746 219.178 79.1172 220.279 79.1172V77.1172ZM218.906 76.584C218.58 76.241 218.373 75.7513 218.373 75.0059H216.373C216.373 76.151 216.706 77.1731 217.457 77.9628L218.906 76.584ZM218.373 75.0059V74.8066H216.373V75.0059H218.373ZM218.373 74.8066C218.373 74.306 218.467 73.8981 218.631 73.5607L216.83 72.6893C216.517 73.3363 216.373 74.0495 216.373 74.8066H218.373ZM218.629 73.5637C218.798 73.2179 219.016 72.9757 219.281 72.805L218.196 71.1247C217.601 71.5087 217.147 72.0399 216.832 72.6863L218.629 73.5637ZM219.282 72.8038C219.558 72.6248 219.839 72.543 220.145 72.543V70.543C219.442 70.543 218.785 70.7424 218.194 71.1259L219.282 72.8038ZM220.145 72.543C220.727 72.543 221.066 72.7218 221.301 73.0014L222.831 71.7135C222.153 70.9071 221.211 70.543 220.145 70.543V72.543ZM221.301 73.0014C221.553 73.3008 221.752 73.8148 221.752 74.6895H223.752C223.752 73.5407 223.493 72.5 222.831 71.7135L221.301 73.0014ZM221.752 74.6895V75.1406H223.752V74.6895H221.752ZM222.752 74.1406H218.457V76.1406H222.752V74.1406ZM217.457 75.1656C217.478 75.9784 217.721 76.7287 218.258 77.3268L219.746 75.9897C219.588 75.8143 219.468 75.5528 219.457 75.1156L217.457 75.1656ZM218.265 77.3346C218.814 77.9322 219.531 78.2324 220.338 78.2324V76.2324C220.067 76.2324 219.893 76.1499 219.738 75.9818L218.265 77.3346ZM220.338 78.2324C220.856 78.2324 221.365 78.1261 221.818 77.86L220.804 76.1361C220.725 76.1825 220.585 76.2324 220.338 76.2324V78.2324ZM221.818 77.86C222.199 77.6355 222.526 77.3412 222.799 76.9884L221.217 75.7655C221.091 75.9283 220.953 76.0481 220.804 76.1361L221.818 77.86ZM221.393 77.1659L222.055 77.6816L223.284 76.1036L222.622 75.588L221.393 77.1659ZM221.832 76.3472C221.504 76.8507 221.04 77.1172 220.279 77.1172V79.1172C221.644 79.1172 222.773 78.5672 223.508 77.438L221.832 76.3472ZM220.145 71.4336C219.429 71.4336 218.796 71.7094 218.31 72.2343L219.776 73.5938C219.884 73.4781 219.985 73.4336 220.145 73.4336V71.4336ZM218.314 72.2298C217.83 72.7454 217.587 73.413 217.5 74.1285L219.485 74.3715C219.538 73.9385 219.662 73.7156 219.772 73.5983L218.314 72.2298ZM218.492 75.25H221.668V73.25H218.492V75.25ZM222.668 74.25V74.168H220.668V74.25H222.668ZM222.666 74.1113C222.627 73.4195 222.433 72.7508 221.972 72.2287L220.473 73.5526C220.543 73.632 220.646 73.8149 220.67 74.2246L222.666 74.1113ZM221.976 72.2335C221.497 71.6831 220.848 71.4336 220.145 71.4336V73.4336C220.348 73.4336 220.417 73.4887 220.469 73.5478L221.976 72.2335ZM228.711 77.2383L229.507 77.8434L229.509 77.8408L228.711 77.2383ZM225.061 77.2676L225.852 76.6563L224.251 74.5839L224.063 77.1958L225.061 77.2676ZM225.008 78V79H225.938L226.005 78.0718L225.008 78ZM224.012 78H223.012V79H224.012V78ZM224.012 69V68H223.012V69H224.012ZM225.096 69H226.096V68H225.096V69ZM225.096 72.3574H224.096V75.1923L225.874 72.9848L225.096 72.3574ZM228.717 72.416L227.917 73.0169L227.92 73.0203L228.717 72.416ZM225.096 73.459L224.191 73.0332L224.096 73.2354V73.459H225.096ZM225.096 76.2012H224.096V76.4372L224.201 76.6484L225.096 76.2012ZM228.379 74.9004C228.379 75.7192 228.192 76.2666 227.913 76.6357L229.509 77.8408C230.121 77.0303 230.379 76.019 230.379 74.9004H228.379ZM227.915 76.6332C227.663 76.9648 227.362 77.1172 226.918 77.1172V79.1172C227.973 79.1172 228.868 78.6836 229.507 77.8434L227.915 76.6332ZM226.918 77.1172C226.385 77.1172 226.076 76.9461 225.852 76.6563L224.269 77.8789C224.92 78.7219 225.849 79.1172 226.918 79.1172V77.1172ZM224.063 77.1958L224.01 77.9282L226.005 78.0718L226.058 77.3394L224.063 77.1958ZM225.008 77H224.012V79H225.008V77ZM225.012 78V69H223.012V78H225.012ZM224.012 70H225.096V68H224.012V70ZM224.096 69V72.3574H226.096V69H224.096ZM225.874 72.9848C226.101 72.7039 226.404 72.543 226.906 72.543V70.543C225.87 70.543 224.966 70.925 224.317 71.73L225.874 72.9848ZM226.906 72.543C227.382 72.543 227.681 72.7024 227.917 73.0169L229.516 71.8152C228.878 70.9656 227.969 70.543 226.906 70.543V72.543ZM227.92 73.0203C228.187 73.3726 228.379 73.9307 228.379 74.8066H230.379C230.379 73.6591 230.129 72.6235 229.514 71.8117L227.92 73.0203ZM228.379 74.8066V74.9004H230.379V74.8066H228.379ZM229.295 74.7773C229.295 73.9292 229.134 73.1246 228.683 72.4882L227.051 73.6446C227.171 73.8129 227.295 74.1489 227.295 74.7773H229.295ZM228.683 72.4882C228.192 71.796 227.464 71.4629 226.637 71.4629V73.4629C226.88 73.4629 226.972 73.5322 227.051 73.6446L228.683 72.4882ZM226.637 71.4629C226.12 71.4629 225.617 71.5849 225.172 71.8721C224.73 72.1582 224.411 72.5661 224.191 73.0332L226.001 73.8848C226.093 73.6878 226.187 73.5976 226.258 73.5517C226.328 73.5069 226.439 73.4629 226.637 73.4629V71.4629ZM224.096 73.459V76.2012H226.096V73.459H224.096ZM224.201 76.6484C224.431 77.108 224.754 77.5083 225.193 77.7899C225.635 78.0735 226.134 78.1973 226.648 78.1973V76.1973C226.46 76.1973 226.348 76.155 226.273 76.1065C226.194 76.0561 226.092 75.9584 225.99 75.754L224.201 76.6484ZM226.648 78.1973C227.471 78.1973 228.186 77.8557 228.673 77.1772L227.049 76.0103C226.959 76.1365 226.864 76.1973 226.648 76.1973V78.1973ZM228.673 77.1772C229.14 76.5277 229.295 75.6744 229.295 74.7773H227.295C227.295 75.4975 227.161 75.8552 227.049 76.0103L228.673 77.1772ZM233.814 72.6328L233.65 73.6192L234.814 73.8133V72.6328H233.814ZM231.834 73.5L230.912 73.1133L230.834 73.2988V73.5H231.834ZM231.834 78V79H232.834V78H231.834ZM230.75 78H229.75V79H230.75V78ZM230.75 71.6602V70.6602H229.75V71.6602H230.75ZM231.805 71.6602L232.804 71.6362L232.781 70.6602H231.805V71.6602ZM231.822 72.3926L230.823 72.4166L230.902 75.7397L232.669 72.9242L231.822 72.3926ZM233.814 71.625H234.814V71.007L234.262 70.7306L233.814 71.625ZM233.979 71.6464C233.753 71.6088 233.52 71.5918 233.281 71.5918V73.5918C233.426 73.5918 233.548 73.6021 233.65 73.6192L233.979 71.6464ZM233.281 71.5918C232.784 71.5918 232.29 71.6984 231.855 71.9718C231.413 72.2488 231.106 72.6505 230.912 73.1133L232.756 73.8867C232.816 73.744 232.877 73.6916 232.918 73.6659C232.964 73.6366 233.067 73.5918 233.281 73.5918V71.5918ZM230.834 73.5V78H232.834V73.5H230.834ZM231.834 77H230.75V79H231.834V77ZM231.75 78V71.6602H229.75V78H231.75ZM230.75 72.6602H231.805V70.6602H230.75V72.6602ZM230.805 71.6841L230.823 72.4166L232.822 72.3686L232.804 71.6362L230.805 71.6841ZM232.669 72.9242C232.847 72.6403 233.036 72.543 233.334 72.543V70.543C232.327 70.543 231.508 71.012 230.975 71.861L232.669 72.9242ZM233.334 72.543C233.365 72.543 233.39 72.544 233.409 72.5454C233.428 72.5468 233.439 72.5484 233.444 72.5492C233.449 72.55 233.444 72.5495 233.432 72.5458C233.42 72.5421 233.397 72.5343 233.367 72.5194L234.262 70.7306C233.947 70.5732 233.603 70.543 233.334 70.543V72.543ZM232.814 71.625V72.6328H234.814V71.625H232.814ZM238.496 78L237.602 78.4472L237.878 79H238.496V78ZM238.344 77.332L239.336 77.211L239.082 75.1235L237.623 76.6385L238.344 77.332ZM234.998 77.5898L234.332 78.3361L234.34 78.3429L234.998 77.5898ZM235.15 74.707L235.738 75.516L235.739 75.5152L235.15 74.707ZM238.326 74.1562V75.1562H239.326V74.1562H238.326ZM237.986 72.7559L237.279 73.463L237.285 73.4691L237.986 72.7559ZM235.619 73.418V74.418H236.619V73.418H235.619ZM234.529 73.418H233.529V74.418H234.529V73.418ZM234.863 72.5039L234.068 71.8972L234.067 71.8988L234.863 72.5039ZM235.777 71.8008L235.371 70.887L235.368 70.8885L235.777 71.8008ZM238.766 72.0938L238.102 72.8419L238.106 72.8454L238.766 72.0938ZM239.41 73.5996H240.41V73.5874L240.41 73.5752L239.41 73.5996ZM239.633 77.9062H240.633V77.6996L240.551 77.5098L239.633 77.9062ZM239.633 78V79H240.633V78H239.633ZM238.326 76.2246L239.226 76.6618L239.326 76.4548V76.2246H238.326ZM238.326 74.9238H239.326V73.9238H238.326V74.9238ZM239.391 77.5528C239.41 77.5923 239.403 77.5928 239.386 77.5169C239.371 77.4495 239.353 77.3498 239.336 77.211L237.351 77.4531C237.391 77.7772 237.455 78.1537 237.602 78.4472L239.391 77.5528ZM237.623 76.6385C237.3 76.9747 236.955 77.1172 236.539 77.1172V79.1172C237.522 79.1172 238.38 78.7362 239.064 78.0256L237.623 76.6385ZM236.539 77.1172C236.113 77.1172 235.846 77.0027 235.656 76.8368L234.34 78.3429C234.955 78.8801 235.716 79.1172 236.539 79.1172V77.1172ZM235.664 76.8436C235.482 76.6815 235.4 76.5057 235.4 76.2422H233.4C233.4 77.0647 233.717 77.7872 234.332 78.336L235.664 76.8436ZM235.4 76.2422C235.4 75.8766 235.517 75.6766 235.738 75.516L234.563 73.898C233.784 74.464 233.4 75.2875 233.4 76.2422H235.4ZM235.739 75.5152C236.01 75.3182 236.48 75.1562 237.271 75.1562V73.1562C236.243 73.1562 235.299 73.3615 234.561 73.8988L235.739 75.5152ZM237.271 75.1562H238.326V73.1562H237.271V75.1562ZM239.326 74.1562V73.6582H237.326V74.1562H239.326ZM239.326 73.6582C239.326 73.0667 239.141 72.489 238.687 72.0426L237.285 73.4691C237.294 73.4774 237.299 73.4847 237.305 73.5009C237.313 73.5204 237.326 73.5681 237.326 73.6582H239.326ZM238.693 72.0488C238.218 71.573 237.589 71.416 236.984 71.416V73.416C237.122 73.416 237.203 73.434 237.245 73.448C237.281 73.4604 237.285 73.4688 237.279 73.463L238.693 72.0488ZM236.984 71.416C236.423 71.416 235.878 71.5608 235.414 71.9076L236.61 73.5104C236.669 73.4665 236.772 73.416 236.984 73.416V71.416ZM235.414 71.9076C234.95 72.2537 234.619 72.7666 234.619 73.418H236.619C236.619 73.428 236.618 73.4444 236.613 73.4645C236.608 73.4848 236.6 73.5028 236.592 73.5171C236.576 73.5462 236.569 73.5406 236.61 73.5104L235.414 71.9076ZM235.619 72.418H234.529V74.418H235.619V72.418ZM235.529 73.418C235.529 73.3545 235.547 73.2575 235.659 73.109L234.067 71.8988C233.735 72.3363 233.529 72.8487 233.529 73.418H235.529ZM235.658 73.1106C235.772 72.9617 235.937 72.8253 236.187 72.7131L235.368 70.8885C234.852 71.12 234.408 71.4523 234.068 71.8972L235.658 73.1106ZM236.183 72.7146C236.431 72.6045 236.715 72.543 237.049 72.543V70.543C236.461 70.543 235.897 70.6534 235.371 70.887L236.183 72.7146ZM237.049 72.543C237.614 72.543 237.923 72.683 238.102 72.8419L239.429 71.3456C238.78 70.7701 237.944 70.543 237.049 70.543V72.543ZM238.106 72.8454C238.275 72.9939 238.4 73.2127 238.41 73.624L240.41 73.5752C240.389 72.7052 240.084 71.9202 239.425 71.3421L238.106 72.8454ZM238.41 73.5996V76.5176H240.41V73.5996H238.41ZM238.41 76.5176C238.41 77.1683 238.491 77.7838 238.715 78.3027L240.551 77.5098C240.478 77.3412 240.41 77.0309 240.41 76.5176H238.41ZM238.633 77.9062V78H240.633V77.9062H238.633ZM239.633 77H238.496V79H239.633V77ZM236.697 78.1738C237.219 78.1738 237.713 78.0366 238.164 77.7763L237.164 76.044C237.006 76.1353 236.855 76.1738 236.697 76.1738V78.1738ZM238.164 77.7763C238.619 77.5136 238.991 77.1447 239.226 76.6618L237.427 75.7874C237.388 75.867 237.318 75.9551 237.164 76.044L238.164 77.7763ZM239.326 76.2246V74.9238H237.326V76.2246H239.326ZM238.326 73.9238H237.477V75.9238H238.326V73.9238ZM237.477 73.9238C236.748 73.9238 236.037 74.0247 235.477 74.3523C234.835 74.7283 234.484 75.3505 234.484 76.0898H236.484C236.484 76.0412 236.494 76.0471 236.478 76.0746C236.462 76.1026 236.45 76.1001 236.488 76.0784C236.592 76.0173 236.877 75.9238 237.477 75.9238V73.9238ZM234.484 76.0898C234.484 76.6762 234.693 77.2403 235.179 77.6506L236.47 76.1228C236.469 76.1224 236.473 76.1256 236.478 76.1325C236.483 76.1396 236.487 76.1466 236.489 76.1517C236.491 76.1565 236.49 76.1558 236.489 76.1469C236.487 76.1377 236.484 76.1194 236.484 76.0898H234.484ZM235.179 77.6506C235.62 78.0234 236.155 78.1738 236.697 78.1738V76.1738C236.529 76.1738 236.481 76.1329 236.47 76.1228L235.179 77.6506ZM245.023 77.373L246.023 77.3357L245.927 74.7672L244.262 76.7252L245.023 77.373ZM241.619 77.5312L240.873 78.1966L240.88 78.2043L241.619 77.5312ZM241.086 75.7852H240.086L240.086 75.7902L241.086 75.7852ZM241.086 71.6602V70.6602H240.086V71.6602H241.086ZM242.17 71.6602H243.17V70.6602H242.17V71.6602ZM244.994 76.2715L245.908 76.6765L245.994 76.4831V76.2715H244.994ZM244.994 71.6602V70.6602H243.994V71.6602H244.994ZM246.078 71.6602H247.078V70.6602H246.078V71.6602ZM246.078 78V79H247.078V78H246.078ZM245.047 78L244.048 78.0374L244.084 79H245.047V78ZM244.262 76.7252C244.076 76.943 243.77 77.1172 243.166 77.1172V79.1172C244.195 79.1172 245.127 78.7953 245.785 78.0209L244.262 76.7252ZM243.166 77.1172C242.688 77.1172 242.475 76.9858 242.359 76.8582L240.88 78.2043C241.474 78.858 242.292 79.1172 243.166 79.1172V77.1172ZM242.366 76.866C242.236 76.7209 242.089 76.4151 242.086 75.7801L240.086 75.7902C240.091 76.6943 240.299 77.5525 240.873 78.1965L242.366 76.866ZM242.086 75.7852V71.6602H240.086V75.7852H242.086ZM241.086 72.6602H242.17V70.6602H241.086V72.6602ZM241.17 71.6602V75.7559H243.17V71.6602H241.17ZM241.17 75.7559C241.17 76.346 241.286 76.9742 241.687 77.4677C242.12 78.0009 242.736 78.1973 243.342 78.1973V76.1973C243.247 76.1973 243.21 76.1826 243.208 76.1819C243.208 76.1818 243.213 76.184 243.221 76.19C243.23 76.196 243.236 76.2021 243.239 76.2061C243.249 76.2191 243.17 76.1266 243.17 75.7559H241.17ZM243.342 78.1973C243.875 78.1973 244.401 78.0983 244.865 77.8382C245.342 77.5707 245.691 77.1683 245.908 76.6765L244.08 75.8664C244.024 75.9919 243.961 76.0523 243.887 76.0934C243.801 76.142 243.636 76.1973 243.342 76.1973V78.1973ZM245.994 76.2715V71.6602H243.994V76.2715H245.994ZM244.994 72.6602H246.078V70.6602H244.994V72.6602ZM245.078 71.6602V78H247.078V71.6602H245.078ZM246.078 77H245.047V79H246.078V77ZM246.046 77.9626L246.023 77.3357L244.024 77.4104L244.048 78.0374L246.046 77.9626ZM251.088 75.6387L250.488 76.4387L250.496 76.4447L250.504 76.4505L251.088 75.6387ZM249.934 75.2168L249.724 76.1946L249.725 76.1949L249.934 75.2168ZM248.627 74.7949L248.171 75.685L248.175 75.6872L248.627 74.7949ZM247.912 74.209L247.082 74.767L247.089 74.7767L247.912 74.209ZM248.34 72.082L247.708 71.3065L247.705 71.3093L248.34 72.082ZM251.773 72.0996L251.133 72.8678L251.137 72.8706L251.773 72.0996ZM252.447 73.5234V74.5234H253.447V73.5234H252.447ZM251.357 73.5234H250.357V74.5234H251.357V73.5234ZM250.977 72.7559L250.325 73.5143L250.331 73.5192L250.977 72.7559ZM250.197 74.3379L249.978 75.3136L249.98 75.3139L250.197 74.3379ZM252.26 75.3809L251.43 75.9387L251.435 75.9466L251.441 75.9543L252.26 75.3809ZM251.826 77.6074L252.426 78.4074L252.431 78.4041L251.826 77.6074ZM247.795 77.0977L246.966 77.657L246.974 77.6684L247.795 77.0977ZM247.467 76.0488V75.0488H246.467V76.0488H247.467ZM248.551 76.0488L249.549 75.9951L249.498 75.0488H248.551V76.0488ZM248.984 76.916L248.361 77.698L248.367 77.7029L248.374 77.7078L248.984 76.916ZM251.047 76.9863L251.602 77.8184L251.605 77.8164L251.047 76.9863ZM252.422 76.3184C252.422 75.7293 252.176 75.1895 251.672 74.8269L250.504 76.4505C250.501 76.4481 250.49 76.44 250.477 76.4249C250.464 76.4094 250.451 76.3906 250.441 76.3697C250.419 76.3253 250.422 76.3003 250.422 76.3184H252.422ZM251.688 74.8387C251.284 74.5359 250.715 74.3607 250.142 74.2387L249.725 76.1949C249.971 76.2471 250.157 76.2999 250.292 76.3494C250.359 76.3738 250.408 76.3954 250.442 76.4127C250.477 76.4303 250.49 76.44 250.488 76.4387L251.688 74.8387ZM250.143 74.239C249.64 74.1312 249.297 74.013 249.078 73.9027L248.175 75.6872C248.606 75.9049 249.133 76.068 249.724 76.1946L250.143 74.239ZM249.083 73.9049C248.866 73.7938 248.773 73.6962 248.735 73.6413L247.089 74.7767C247.364 75.1749 247.747 75.4679 248.171 75.685L249.083 73.9049ZM248.742 73.651C248.716 73.6124 248.684 73.5437 248.684 73.4004H246.684C246.684 73.882 246.804 74.3525 247.082 74.767L248.742 73.651ZM248.684 73.4004C248.684 73.2094 248.745 73.0436 248.975 72.8548L247.705 71.3093C247.06 71.8392 246.684 72.5523 246.684 73.4004H248.684ZM248.971 72.8575C249.2 72.671 249.526 72.543 250.027 72.543V70.543C249.162 70.543 248.362 70.7743 247.708 71.3065L248.971 72.8575ZM250.027 72.543C250.57 72.543 250.908 72.6798 251.133 72.8678L252.414 71.3314C251.749 70.7772 250.922 70.543 250.027 70.543V72.543ZM251.137 72.8706C251.358 73.0534 251.447 73.2463 251.447 73.5234H253.447C253.447 72.6443 253.087 71.888 252.41 71.3286L251.137 72.8706ZM252.447 72.5234H251.357V74.5234H252.447V72.5234ZM252.357 73.5234C252.357 72.8948 252.071 72.3716 251.623 71.9925L250.331 73.5192C250.351 73.5363 250.361 73.5482 250.366 73.5537C250.37 73.5589 250.369 73.5589 250.366 73.5534C250.364 73.5476 250.361 73.5402 250.359 73.5323C250.357 73.5246 250.357 73.521 250.357 73.5234H252.357ZM251.628 71.9974C251.168 71.602 250.609 71.4336 250.027 71.4336V73.4336C250.212 73.4336 250.285 73.48 250.325 73.5143L251.628 71.9974ZM250.027 71.4336C249.499 71.4336 248.947 71.5478 248.491 71.8998L249.713 73.483C249.702 73.4912 249.767 73.4336 250.027 73.4336V71.4336ZM248.491 71.8998C248.027 72.2579 247.768 72.7729 247.768 73.3652H249.768C249.768 73.364 249.767 73.393 249.747 73.4329C249.728 73.4723 249.707 73.4876 249.713 73.483L248.491 71.8998ZM247.768 73.3652C247.768 73.9414 248.023 74.4683 248.538 74.7987L249.618 73.1153C249.645 73.1325 249.694 73.1744 249.731 73.2448C249.766 73.3126 249.768 73.3625 249.768 73.3652H247.768ZM248.538 74.7987C248.906 75.0345 249.432 75.1908 249.978 75.3136L250.416 73.3622C250.169 73.3066 249.978 73.2536 249.835 73.2052C249.765 73.1812 249.712 73.1601 249.673 73.1429C249.634 73.1252 249.618 73.1152 249.618 73.1153L248.538 74.7987ZM249.98 75.3139C250.477 75.4249 250.831 75.5473 251.068 75.6659L251.963 73.8771C251.528 73.6597 251.003 73.4931 250.415 73.3619L249.98 75.3139ZM251.068 75.6659C251.296 75.7798 251.391 75.8813 251.43 75.9387L253.09 74.823C252.808 74.4038 252.407 74.0991 251.963 73.8771L251.068 75.6659ZM251.441 75.9543C251.466 75.991 251.506 76.0681 251.506 76.2422H253.506C253.506 75.7366 253.381 75.2395 253.079 74.8074L251.441 75.9543ZM251.506 76.2422C251.506 76.4942 251.427 76.6551 251.222 76.8107L252.431 78.4041C253.132 77.8722 253.506 77.1229 253.506 76.2422H251.506ZM251.226 76.8074C250.989 76.9855 250.629 77.1172 250.062 77.1172V79.1172C250.941 79.1172 251.757 78.9091 252.426 78.4074L251.226 76.8074ZM250.062 77.1172C249.673 77.1172 249.371 77.0486 249.133 76.9392L248.297 78.7561C248.84 79.0061 249.436 79.1172 250.062 79.1172V77.1172ZM249.133 76.9392C248.887 76.8262 248.727 76.686 248.616 76.5269L246.974 77.6684C247.309 78.1499 247.761 78.5097 248.297 78.7561L249.133 76.9392ZM248.624 76.5384C248.512 76.3718 248.467 76.2156 248.467 76.0488H246.467C246.467 76.632 246.641 77.175 246.966 77.657L248.624 76.5384ZM247.467 77.0488H248.551V75.0488H247.467V77.0488ZM247.552 76.1025C247.586 76.7331 247.855 77.2942 248.361 77.698L249.608 76.134C249.579 76.111 249.571 76.0969 249.568 76.0909C249.565 76.0835 249.553 76.0571 249.549 75.9951L247.552 76.1025ZM248.374 77.7078C248.867 78.0884 249.461 78.2324 250.062 78.2324V76.2324C249.774 76.2324 249.649 76.1655 249.595 76.1242L248.374 77.7078ZM250.062 78.2324C250.596 78.2324 251.139 78.1268 251.602 77.8184L250.492 76.1543C250.463 76.174 250.349 76.2324 250.062 76.2324V78.2324ZM251.605 77.8164C252.103 77.4815 252.422 76.9613 252.422 76.3184H250.422C250.422 76.3121 250.423 76.2962 250.428 76.2736C250.434 76.2505 250.443 76.2265 250.456 76.2038C250.483 76.1561 250.507 76.144 250.489 76.1563L251.605 77.8164ZM255.688 75.0645L256.487 74.4632L255.779 73.5235L254.966 74.3724L255.688 75.0645ZM255.008 75.7734L254.286 75.0814L254.008 75.3715V75.7734H255.008ZM255.008 78V79H256.008V78H255.008ZM253.924 78H252.924V79H253.924V78ZM253.924 69V68H252.924V69H253.924ZM255.008 69H256.008V68H255.008V69ZM255.008 74.4434H254.008V77.209L255.777 75.0829L255.008 74.4434ZM255.588 73.7461L254.862 73.0586L254.84 73.0819L254.819 73.1065L255.588 73.7461ZM257.562 71.6602V70.6602H257.132L256.836 70.9727L257.562 71.6602ZM258.881 71.6602L259.613 72.3417L261.179 70.6602H258.881V71.6602ZM256.414 74.3086L255.682 73.627L255.114 74.2377L255.613 74.9066L256.414 74.3086ZM259.168 78V79H261.162L259.969 77.402L259.168 78ZM257.896 78L257.097 78.6013L257.397 79H257.896V78ZM254.966 74.3724L254.286 75.0814L255.73 76.4655L256.409 75.7565L254.966 74.3724ZM254.008 75.7734V78H256.008V75.7734H254.008ZM255.008 77H253.924V79H255.008V77ZM254.924 78V69H252.924V78H254.924ZM253.924 70H255.008V68H253.924V70ZM254.008 69V74.4434H256.008V69H254.008ZM255.777 75.0829L256.357 74.3856L254.819 73.1065L254.239 73.8038L255.777 75.0829ZM256.314 74.4336L258.289 72.3476L256.836 70.9727L254.862 73.0586L256.314 74.4336ZM257.562 72.6602H258.881V70.6602H257.562V72.6602ZM258.149 70.9786L255.682 73.627L257.146 74.9902L259.613 72.3417L258.149 70.9786ZM255.613 74.9066L258.366 78.598L259.969 77.402L257.216 73.7106L255.613 74.9066ZM259.168 77H257.896V79H259.168V77ZM258.696 77.3987L256.487 74.4632L254.888 75.6657L257.097 78.6013L258.696 77.3987ZM263.914 78L263.02 78.4472L263.296 79H263.914V78ZM263.762 77.332L264.754 77.211L264.5 75.1235L263.041 76.6385L263.762 77.332ZM260.416 77.5898L259.75 78.3361L259.758 78.3429L260.416 77.5898ZM260.568 74.707L261.156 75.516L261.157 75.5152L260.568 74.707ZM263.744 74.1562V75.1562H264.744V74.1562H263.744ZM263.404 72.7559L262.697 73.463L262.703 73.4691L263.404 72.7559ZM261.037 73.418V74.418H262.037V73.418H261.037ZM259.947 73.418H258.947V74.418H259.947V73.418ZM260.281 72.5039L259.486 71.8972L259.485 71.8988L260.281 72.5039ZM261.195 71.8008L260.789 70.887L260.786 70.8885L261.195 71.8008ZM264.184 72.0938L263.52 72.8419L263.524 72.8454L264.184 72.0938ZM264.828 73.5996H265.828V73.5874L265.828 73.5752L264.828 73.5996ZM265.051 77.9062H266.051V77.6996L265.969 77.5098L265.051 77.9062ZM265.051 78V79H266.051V78H265.051ZM263.744 76.2246L264.644 76.6618L264.744 76.4548V76.2246H263.744ZM263.744 74.9238H264.744V73.9238H263.744V74.9238ZM264.808 77.5528C264.828 77.5923 264.821 77.5928 264.804 77.5169C264.789 77.4495 264.771 77.3498 264.754 77.211L262.769 77.4531C262.809 77.7772 262.873 78.1537 263.02 78.4472L264.808 77.5528ZM263.041 76.6385C262.718 76.9747 262.373 77.1172 261.957 77.1172V79.1172C262.94 79.1172 263.798 78.7362 264.482 78.0256L263.041 76.6385ZM261.957 77.1172C261.531 77.1172 261.264 77.0027 261.074 76.8368L259.758 78.3429C260.373 78.8801 261.133 79.1172 261.957 79.1172V77.1172ZM261.082 76.8436C260.9 76.6815 260.818 76.5057 260.818 76.2422H258.818C258.818 77.0647 259.135 77.7872 259.75 78.336L261.082 76.8436ZM260.818 76.2422C260.818 75.8766 260.935 75.6766 261.156 75.516L259.981 73.898C259.202 74.464 258.818 75.2875 258.818 76.2422H260.818ZM261.157 75.5152C261.428 75.3182 261.898 75.1562 262.689 75.1562V73.1562C261.661 73.1562 260.717 73.3615 259.979 73.8988L261.157 75.5152ZM262.689 75.1562H263.744V73.1562H262.689V75.1562ZM264.744 74.1562V73.6582H262.744V74.1562H264.744ZM264.744 73.6582C264.744 73.0667 264.559 72.489 264.105 72.0426L262.703 73.4691C262.712 73.4774 262.717 73.4847 262.723 73.5009C262.731 73.5204 262.744 73.5681 262.744 73.6582H264.744ZM264.111 72.0488C263.636 71.573 263.007 71.416 262.402 71.416V73.416C262.54 73.416 262.621 73.434 262.663 73.448C262.699 73.4604 262.703 73.4688 262.697 73.463L264.111 72.0488ZM262.402 71.416C261.841 71.416 261.296 71.5608 260.832 71.9076L262.028 73.5104C262.087 73.4665 262.19 73.416 262.402 73.416V71.416ZM260.832 71.9076C260.368 72.2537 260.037 72.7666 260.037 73.418H262.037C262.037 73.428 262.036 73.4444 262.031 73.4645C262.026 73.4848 262.018 73.5028 262.01 73.5171C261.994 73.5462 261.987 73.5406 262.028 73.5104L260.832 71.9076ZM261.037 72.418H259.947V74.418H261.037V72.418ZM260.947 73.418C260.947 73.3545 260.965 73.2575 261.077 73.109L259.485 71.8988C259.153 72.3363 258.947 72.8487 258.947 73.418H260.947ZM261.076 73.1106C261.19 72.9617 261.355 72.8253 261.605 72.7131L260.786 70.8885C260.27 71.12 259.826 71.4523 259.486 71.8972L261.076 73.1106ZM261.601 72.7146C261.849 72.6045 262.133 72.543 262.467 72.543V70.543C261.879 70.543 261.315 70.6534 260.789 70.887L261.601 72.7146ZM262.467 72.543C263.032 72.543 263.341 72.683 263.52 72.8419L264.847 71.3456C264.198 70.7701 263.362 70.543 262.467 70.543V72.543ZM263.524 72.8454C263.693 72.9939 263.818 73.2127 263.828 73.624L265.828 73.5752C265.807 72.7052 265.502 71.9202 264.843 71.3421L263.524 72.8454ZM263.828 73.5996V76.5176H265.828V73.5996H263.828ZM263.828 76.5176C263.828 77.1683 263.909 77.7838 264.133 78.3027L265.969 77.5098C265.896 77.3412 265.828 77.0309 265.828 76.5176H263.828ZM264.051 77.9062V78H266.051V77.9062H264.051ZM265.051 77H263.914V79H265.051V77ZM262.115 78.1738C262.637 78.1738 263.131 78.0366 263.582 77.7763L262.582 76.044C262.424 76.1353 262.273 76.1738 262.115 76.1738V78.1738ZM263.582 77.7763C264.037 77.5136 264.409 77.1447 264.644 76.6618L262.845 75.7874C262.806 75.867 262.736 75.9551 262.582 76.044L263.582 77.7763ZM264.744 76.2246V74.9238H262.744V76.2246H264.744ZM263.744 73.9238H262.895V75.9238H263.744V73.9238ZM262.895 73.9238C262.166 73.9238 261.455 74.0247 260.895 74.3523C260.253 74.7283 259.902 75.3505 259.902 76.0898H261.902C261.902 76.0412 261.911 76.0471 261.896 76.0746C261.88 76.1026 261.868 76.1001 261.906 76.0784C262.01 76.0173 262.295 75.9238 262.895 75.9238V73.9238ZM259.902 76.0898C259.902 76.6762 260.111 77.2403 260.597 77.6506L261.888 76.1228C261.887 76.1224 261.891 76.1256 261.896 76.1325C261.901 76.1396 261.905 76.1466 261.907 76.1517C261.909 76.1565 261.908 76.1558 261.907 76.1469C261.905 76.1377 261.902 76.1194 261.902 76.0898H259.902ZM260.597 77.6506C261.038 78.0234 261.573 78.1738 262.115 78.1738V76.1738C261.947 76.1738 261.899 76.1329 261.888 76.1228L260.597 77.6506ZM269.885 75.6387L269.285 76.4387L269.293 76.4447L269.301 76.4505L269.885 75.6387ZM268.73 75.2168L268.521 76.1946L268.522 76.1949L268.73 75.2168ZM267.424 74.7949L266.968 75.685L266.972 75.6872L267.424 74.7949ZM266.709 74.209L265.879 74.767L265.886 74.7767L266.709 74.209ZM267.137 72.082L266.505 71.3065L266.502 71.3093L267.137 72.082ZM270.57 72.0996L269.93 72.8678L269.933 72.8706L270.57 72.0996ZM271.244 73.5234V74.5234H272.244V73.5234H271.244ZM270.154 73.5234H269.154V74.5234H270.154V73.5234ZM269.773 72.7559L269.122 73.5143L269.127 73.5192L269.773 72.7559ZM268.994 74.3379L268.775 75.3136L268.776 75.3139L268.994 74.3379ZM271.057 75.3809L270.227 75.9387L270.232 75.9466L270.237 75.9543L271.057 75.3809ZM270.623 77.6074L271.223 78.4074L271.227 78.4041L270.623 77.6074ZM266.592 77.0977L265.763 77.657L265.771 77.6684L266.592 77.0977ZM266.264 76.0488V75.0488H265.264V76.0488H266.264ZM267.348 76.0488L268.346 75.9951L268.295 75.0488H267.348V76.0488ZM267.781 76.916L267.158 77.698L267.164 77.7029L267.17 77.7078L267.781 76.916ZM269.844 76.9863L270.398 77.8184L270.401 77.8164L269.844 76.9863ZM271.219 76.3184C271.219 75.7293 270.973 75.1895 270.469 74.8269L269.301 76.4505C269.298 76.4481 269.287 76.44 269.274 76.4249C269.261 76.4094 269.248 76.3906 269.238 76.3697C269.216 76.3253 269.219 76.3003 269.219 76.3184H271.219ZM270.485 74.8387C270.081 74.5359 269.512 74.3607 268.939 74.2387L268.522 76.1949C268.768 76.2471 268.953 76.2999 269.089 76.3494C269.156 76.3738 269.205 76.3954 269.239 76.4127C269.274 76.4303 269.286 76.44 269.285 76.4387L270.485 74.8387ZM268.94 74.239C268.437 74.1312 268.093 74.013 267.875 73.9027L266.972 75.6872C267.403 75.9049 267.93 76.068 268.521 76.1946L268.94 74.239ZM267.88 73.9049C267.663 73.7938 267.57 73.6962 267.532 73.6413L265.886 74.7767C266.16 75.1749 266.544 75.4679 266.968 75.685L267.88 73.9049ZM267.539 73.651C267.513 73.6124 267.48 73.5437 267.48 73.4004H265.48C265.48 73.882 265.6 74.3525 265.879 74.767L267.539 73.651ZM267.48 73.4004C267.48 73.2094 267.542 73.0436 267.771 72.8548L266.502 71.3093C265.857 71.8392 265.48 72.5523 265.48 73.4004H267.48ZM267.768 72.8575C267.997 72.671 268.323 72.543 268.824 72.543V70.543C267.959 70.543 267.159 70.7743 266.505 71.3065L267.768 72.8575ZM268.824 72.543C269.367 72.543 269.704 72.6798 269.93 72.8678L271.21 71.3314C270.546 70.7772 269.719 70.543 268.824 70.543V72.543ZM269.933 72.8706C270.155 73.0534 270.244 73.2463 270.244 73.5234H272.244C272.244 72.6443 271.884 71.888 271.207 71.3286L269.933 72.8706ZM271.244 72.5234H270.154V74.5234H271.244V72.5234ZM271.154 73.5234C271.154 72.8948 270.867 72.3716 270.419 71.9925L269.127 73.5192C269.148 73.5363 269.158 73.5482 269.163 73.5537C269.167 73.5589 269.166 73.5589 269.163 73.5534C269.16 73.5476 269.158 73.5402 269.156 73.5323C269.154 73.5246 269.154 73.521 269.154 73.5234H271.154ZM270.425 71.9974C269.965 71.602 269.405 71.4336 268.824 71.4336V73.4336C269.009 73.4336 269.082 73.48 269.122 73.5143L270.425 71.9974ZM268.824 71.4336C268.296 71.4336 267.743 71.5478 267.287 71.8998L268.509 73.483C268.499 73.4912 268.564 73.4336 268.824 73.4336V71.4336ZM267.287 71.8998C266.824 72.2579 266.564 72.7729 266.564 73.3652H268.564C268.564 73.364 268.564 73.393 268.544 73.4329C268.524 73.4723 268.503 73.4876 268.509 73.483L267.287 71.8998ZM266.564 73.3652C266.564 73.9414 266.82 74.4683 267.335 74.7987L268.415 73.1153C268.442 73.1325 268.491 73.1744 268.528 73.2448C268.563 73.3126 268.564 73.3625 268.564 73.3652H266.564ZM267.335 74.7987C267.703 75.0345 268.228 75.1908 268.775 75.3136L269.213 73.3622C268.966 73.3066 268.775 73.2536 268.632 73.2052C268.562 73.1812 268.509 73.1601 268.47 73.1429C268.431 73.1252 268.415 73.1152 268.415 73.1153L267.335 74.7987ZM268.776 75.3139C269.274 75.4249 269.628 75.5473 269.865 75.6659L270.76 73.8771C270.325 73.6597 269.8 73.4931 269.212 73.3619L268.776 75.3139ZM269.865 75.6659C270.093 75.7798 270.188 75.8813 270.227 75.9387L271.887 74.823C271.605 74.4038 271.204 74.0991 270.76 73.8771L269.865 75.6659ZM270.237 75.9543C270.263 75.991 270.303 76.0681 270.303 76.2422H272.303C272.303 75.7366 272.178 75.2395 271.876 74.8074L270.237 75.9543ZM270.303 76.2422C270.303 76.4942 270.224 76.6551 270.019 76.8107L271.227 78.4041C271.929 77.8722 272.303 77.1229 272.303 76.2422H270.303ZM270.023 76.8074C269.786 76.9855 269.426 77.1172 268.859 77.1172V79.1172C269.738 79.1172 270.554 78.9091 271.223 78.4074L270.023 76.8074ZM268.859 77.1172C268.47 77.1172 268.168 77.0486 267.93 76.9392L267.094 78.7561C267.637 79.0061 268.233 79.1172 268.859 79.1172V77.1172ZM267.93 76.9392C267.684 76.8262 267.524 76.686 267.413 76.5269L265.771 77.6684C266.105 78.1499 266.558 78.5097 267.094 78.7561L267.93 76.9392ZM267.421 76.5384C267.308 76.3718 267.264 76.2156 267.264 76.0488H265.264C265.264 76.632 265.438 77.175 265.763 77.657L267.421 76.5384ZM266.264 77.0488H267.348V75.0488H266.264V77.0488ZM266.349 76.1025C266.383 76.7331 266.651 77.2942 267.158 77.698L268.405 76.134C268.376 76.111 268.368 76.0969 268.365 76.0909C268.361 76.0835 268.35 76.0571 268.346 75.9951L266.349 76.1025ZM267.17 77.7078C267.664 78.0884 268.258 78.2324 268.859 78.2324V76.2324C268.571 76.2324 268.445 76.1655 268.392 76.1242L267.17 77.7078ZM268.859 78.2324C269.393 78.2324 269.936 78.1268 270.398 77.8184L269.289 76.1543C269.259 76.174 269.146 76.2324 268.859 76.2324V78.2324ZM270.401 77.8164C270.9 77.4815 271.219 76.9613 271.219 76.3184H269.219C269.219 76.3121 269.22 76.2962 269.225 76.2736C269.231 76.2505 269.24 76.2265 269.253 76.2038C269.28 76.1561 269.304 76.144 269.286 76.1563L270.401 77.8164Z" fill="black"/>
</g>
<path id="Rx" d="M52.1191 20.5488H50.1152V24H48.9844V15.4688H51.8086C52.7695 15.4688 53.5078 15.6875 54.0234 16.125C54.543 16.5625 54.8027 17.1992 54.8027 18.0352C54.8027 18.5664 54.6582 19.0293 54.3691 19.4238C54.084 19.8184 53.6855 20.1133 53.1738 20.3086L55.1777 23.9297V24H53.9707L52.1191 20.5488ZM50.1152 19.6289H51.8438C52.4023 19.6289 52.8457 19.4844 53.1738 19.1953C53.5059 18.9062 53.6719 18.5195 53.6719 18.0352C53.6719 17.5078 53.5137 17.1035 53.1973 16.8223C52.8848 16.541 52.4316 16.3984 51.8379 16.3945H50.1152V19.6289ZM58.3418 19.9746L59.748 17.6602H61.0137L58.9395 20.7949L61.0781 24H59.8242L58.3594 21.627L56.8945 24H55.6348L57.7734 20.7949L55.6992 17.6602H56.9531L58.3418 19.9746Z" fill="black"/>
<path id="Tx" d="M227.885 16.3945H225.143V24H224.023V16.3945H221.287V15.4688H227.885V16.3945ZM230.65 19.9746L232.057 17.6602H233.322L231.248 20.7949L233.387 24H232.133L230.668 21.627L229.203 24H227.943L230.082 20.7949L228.008 17.6602H229.262L230.65 19.9746Z" fill="black"/>
<g id="Scheme">
<ellipse id="Ellipse 1" cx="124.246" cy="10" rx="3.77104" ry="4" fill="#7B7474"/>
<ellipse id="Ellipse 2" cx="140.273" cy="10" rx="3.77104" ry="4" fill="#7B7474"/>
<g id="Circles">
<ellipse id="Ellipse 1_2" cx="124.246" cy="78" rx="3.77104" ry="4" fill="#7B7474"/>
<ellipse id="Ellipse 2_2" cx="140.273" cy="78" rx="3.77104" ry="4" fill="#7B7474"/>
<ellipse id="Ellipse 3" cx="156.3" cy="78" rx="3.77104" ry="4" fill="#7B7474"/>
</g>
<ellipse id="Ellipse 3_2" cx="156.3" cy="10" rx="3.77104" ry="4" fill="#7B7474"/>
<path id="Line 1" d="M156.3 53V74M124.246 52.5V73.5M140.273 53V74" stroke="black"/>
<path id="Line 2" d="M156 13.5349V36M124 13V35.4651M140 13.5349V36" stroke="black"/>
<rect id="Rectangle 1" x="120.975" y="35.5" width="38.596" height="17" fill="#0D0C0C" stroke="black"/>
<path id="Vector 1" d="M37.0404 21.5V32.5H98.7912V43.5H120.475" stroke="#060606"/>
<path id="Vector 2" d="M243.505 21.5V33L181.283 32.5V43.5H160.542" stroke="#020202"/>
<path id="App" d="M134.701 45.7734H131.127L130.324 48H129.164L132.422 39.4688H133.406L136.67 48H135.516L134.701 45.7734ZM131.467 44.8477H134.367L132.914 40.8574L131.467 44.8477ZM143.004 44.9004C143.004 45.8652 142.783 46.6426 142.342 47.2324C141.9 47.8223 141.303 48.1172 140.549 48.1172C139.779 48.1172 139.174 47.873 138.732 47.3848V50.4375H137.648V41.6602H138.639L138.691 42.3633C139.133 41.8164 139.746 41.543 140.531 41.543C141.293 41.543 141.895 41.8301 142.336 42.4043C142.781 42.9785 143.004 43.7773 143.004 44.8008V44.9004ZM141.92 44.7773C141.92 44.0625 141.768 43.498 141.463 43.084C141.158 42.6699 140.74 42.4629 140.209 42.4629C139.553 42.4629 139.061 42.7539 138.732 43.3359V46.3652C139.057 46.9434 139.553 47.2324 140.221 47.2324C140.74 47.2324 141.152 47.0273 141.457 46.6172C141.766 46.2031 141.92 45.5898 141.92 44.7773ZM149.742 44.9004C149.742 45.8652 149.521 46.6426 149.08 47.2324C148.639 47.8223 148.041 48.1172 147.287 48.1172C146.518 48.1172 145.912 47.873 145.471 47.3848V50.4375H144.387V41.6602H145.377L145.43 42.3633C145.871 41.8164 146.484 41.543 147.27 41.543C148.031 41.543 148.633 41.8301 149.074 42.4043C149.52 42.9785 149.742 43.7773 149.742 44.8008V44.9004ZM148.658 44.7773C148.658 44.0625 148.506 43.498 148.201 43.084C147.896 42.6699 147.479 42.4629 146.947 42.4629C146.291 42.4629 145.799 42.7539 145.471 43.3359V46.3652C145.795 46.9434 146.291 47.2324 146.959 47.2324C147.479 47.2324 147.891 47.0273 148.195 46.6172C148.504 46.2031 148.658 45.5898 148.658 44.7773Z" fill="#FDF4F4"/>
</g>
<g id="Creator:">
<path d="M177.266 59.293C177.16 60.1953 176.826 60.8926 176.264 61.3848C175.705 61.873 174.961 62.1172 174.031 62.1172C173.023 62.1172 172.215 61.7559 171.605 61.0332C171 60.3105 170.697 59.3438 170.697 58.1328V57.3125C170.697 56.5195 170.838 55.8223 171.119 55.2207C171.404 54.6191 171.807 54.1582 172.326 53.8379C172.846 53.5137 173.447 53.3516 174.131 53.3516C175.037 53.3516 175.764 53.6055 176.311 54.1133C176.857 54.6172 177.176 55.3164 177.266 56.2109H176.135C176.037 55.5312 175.824 55.0391 175.496 54.7344C175.172 54.4297 174.717 54.2773 174.131 54.2773C173.412 54.2773 172.848 54.543 172.438 55.0742C172.031 55.6055 171.828 56.3613 171.828 57.3418V58.168C171.828 59.0938 172.021 59.8301 172.408 60.377C172.795 60.9238 173.336 61.1973 174.031 61.1973C174.656 61.1973 175.135 61.0566 175.467 60.7754C175.803 60.4902 176.025 59.9961 176.135 59.293H177.266ZM181.701 56.6328C181.537 56.6055 181.359 56.5918 181.168 56.5918C180.457 56.5918 179.975 56.8945 179.721 57.5V62H178.637V55.6602H179.691L179.709 56.3926C180.064 55.8262 180.568 55.543 181.221 55.543C181.432 55.543 181.592 55.5703 181.701 55.625V56.6328ZM185.217 62.1172C184.357 62.1172 183.658 61.8359 183.119 61.2734C182.58 60.707 182.311 59.9512 182.311 59.0059V58.8066C182.311 58.1777 182.43 57.6172 182.668 57.125C182.91 56.6289 183.246 56.2422 183.676 55.9648C184.109 55.6836 184.578 55.543 185.082 55.543C185.906 55.543 186.547 55.8145 187.004 56.3574C187.461 56.9004 187.689 57.6777 187.689 58.6895V59.1406H183.395C183.41 59.7656 183.592 60.2715 183.939 60.6582C184.291 61.041 184.736 61.2324 185.275 61.2324C185.658 61.2324 185.982 61.1543 186.248 60.998C186.514 60.8418 186.746 60.6348 186.945 60.377L187.607 60.8926C187.076 61.709 186.279 62.1172 185.217 62.1172ZM185.082 56.4336C184.645 56.4336 184.277 56.5938 183.98 56.9141C183.684 57.2305 183.5 57.6758 183.43 58.25H186.605V58.168C186.574 57.6172 186.426 57.1914 186.16 56.8906C185.895 56.5859 185.535 56.4336 185.082 56.4336ZM192.863 62C192.801 61.875 192.75 61.6523 192.711 61.332C192.207 61.8555 191.605 62.1172 190.906 62.1172C190.281 62.1172 189.768 61.9414 189.365 61.5898C188.967 61.2344 188.768 60.7852 188.768 60.2422C188.768 59.582 189.018 59.0703 189.518 58.707C190.021 58.3398 190.729 58.1562 191.639 58.1562H192.693V57.6582C192.693 57.2793 192.58 56.9785 192.354 56.7559C192.127 56.5293 191.793 56.416 191.352 56.416C190.965 56.416 190.641 56.5137 190.379 56.709C190.117 56.9043 189.986 57.1406 189.986 57.418H188.896C188.896 57.1016 189.008 56.7969 189.23 56.5039C189.457 56.207 189.762 55.9727 190.145 55.8008C190.531 55.6289 190.955 55.543 191.416 55.543C192.146 55.543 192.719 55.7266 193.133 56.0938C193.547 56.457 193.762 56.959 193.777 57.5996V60.5176C193.777 61.0996 193.852 61.5625 194 61.9062V62H192.863ZM191.064 61.1738C191.404 61.1738 191.727 61.0859 192.031 60.9102C192.336 60.7344 192.557 60.5059 192.693 60.2246V58.9238H191.844C190.516 58.9238 189.852 59.3125 189.852 60.0898C189.852 60.4297 189.965 60.6953 190.191 60.8867C190.418 61.0781 190.709 61.1738 191.064 61.1738ZM196.947 54.125V55.6602H198.131V56.498H196.947V60.4297C196.947 60.6836 197 60.875 197.105 61.0039C197.211 61.1289 197.391 61.1914 197.645 61.1914C197.77 61.1914 197.941 61.168 198.16 61.1211V62C197.875 62.0781 197.598 62.1172 197.328 62.1172C196.844 62.1172 196.479 61.9707 196.232 61.6777C195.986 61.3848 195.863 60.9688 195.863 60.4297V56.498H194.709V55.6602H195.863V54.125H196.947ZM198.998 58.7715C198.998 58.1504 199.119 57.5918 199.361 57.0957C199.607 56.5996 199.947 56.2168 200.381 55.9473C200.818 55.6777 201.316 55.543 201.875 55.543C202.738 55.543 203.436 55.8418 203.967 56.4395C204.502 57.0371 204.77 57.832 204.77 58.8242V58.9004C204.77 59.5176 204.65 60.0723 204.412 60.5645C204.178 61.0527 203.84 61.4336 203.398 61.707C202.961 61.9805 202.457 62.1172 201.887 62.1172C201.027 62.1172 200.33 61.8184 199.795 61.2207C199.264 60.623 198.998 59.832 198.998 58.8477V58.7715ZM200.088 58.9004C200.088 59.6035 200.25 60.168 200.574 60.5938C200.902 61.0195 201.34 61.2324 201.887 61.2324C202.438 61.2324 202.875 61.0176 203.199 60.5879C203.523 60.1543 203.686 59.5488 203.686 58.7715C203.686 58.0762 203.52 57.5137 203.188 57.084C202.859 56.6504 202.422 56.4336 201.875 56.4336C201.34 56.4336 200.908 56.6465 200.58 57.0723C200.252 57.498 200.088 58.1074 200.088 58.9004ZM209.193 56.6328C209.029 56.6055 208.852 56.5918 208.66 56.5918C207.949 56.5918 207.467 56.8945 207.213 57.5V62H206.129V55.6602H207.184L207.201 56.3926C207.557 55.8262 208.061 55.543 208.713 55.543C208.924 55.543 209.084 55.5703 209.193 55.625V56.6328ZM210.16 61.4316C210.16 61.2441 210.215 61.0879 210.324 60.9629C210.438 60.8379 210.605 60.7754 210.828 60.7754C211.051 60.7754 211.219 60.8379 211.332 60.9629C211.449 61.0879 211.508 61.2441 211.508 61.4316C211.508 61.6113 211.449 61.7617 211.332 61.8828C211.219 62.0039 211.051 62.0645 210.828 62.0645C210.605 62.0645 210.438 62.0039 210.324 61.8828C210.215 61.7617 210.16 61.6113 210.16 61.4316ZM210.166 56.2578C210.166 56.0703 210.221 55.9141 210.33 55.7891C210.443 55.6641 210.611 55.6016 210.834 55.6016C211.057 55.6016 211.225 55.6641 211.338 55.7891C211.455 55.9141 211.514 56.0703 211.514 56.2578C211.514 56.4375 211.455 56.5879 211.338 56.709C211.225 56.8301 211.057 56.8906 210.834 56.8906C210.611 56.8906 210.443 56.8301 210.33 56.709C210.221 56.5879 210.166 56.4375 210.166 56.2578Z" fill="black"/>
<path d="M177.266 59.293L178.259 59.4091L178.389 58.293H177.266V59.293ZM176.264 61.3848L176.922 62.1377L176.922 62.1373L176.264 61.3848ZM171.605 61.0332L170.839 61.6754L170.841 61.6778L171.605 61.0332ZM171.119 55.2207L170.216 54.7924L170.213 54.7972L171.119 55.2207ZM172.326 53.8379L172.851 54.6891L172.856 54.6862L172.326 53.8379ZM176.311 54.1133L175.63 54.8461L175.633 54.8487L176.311 54.1133ZM177.266 56.2109V57.2109H178.371L178.261 56.111L177.266 56.2109ZM176.135 56.2109L175.145 56.3532L175.268 57.2109H176.135V56.2109ZM175.496 54.7344L174.811 55.4631L174.816 55.4672L175.496 54.7344ZM172.438 55.0742L171.646 54.4631L171.643 54.4668L172.438 55.0742ZM175.467 60.7754L176.113 61.5384L176.114 61.5378L175.467 60.7754ZM176.135 59.293V58.293H175.278L175.147 59.1393L176.135 59.293ZM176.272 59.1769C176.189 59.8886 175.943 60.3368 175.605 60.6322L176.922 62.1373C177.71 61.4483 178.131 60.502 178.259 59.4091L176.272 59.1769ZM175.606 60.6319C175.272 60.9236 174.782 61.1172 174.031 61.1172V63.1172C175.14 63.1172 176.138 62.8225 176.922 62.1377L175.606 60.6319ZM174.031 61.1172C173.296 61.1172 172.775 60.8694 172.37 60.3886L170.841 61.6778C171.654 62.6423 172.751 63.1172 174.031 63.1172V61.1172ZM172.372 60.391C171.956 59.8945 171.697 59.177 171.697 58.1328H169.697C169.697 59.5105 170.044 60.7266 170.839 61.6754L172.372 60.391ZM171.697 58.1328V57.3125H169.697V58.1328H171.697ZM171.697 57.3125C171.697 56.6379 171.817 56.09 172.025 55.6442L170.213 54.7972C169.859 55.5546 169.697 56.4012 169.697 57.3125H171.697ZM172.023 55.649C172.233 55.2056 172.511 54.8988 172.851 54.6891L171.801 52.9867C171.102 53.4176 170.576 54.0327 170.216 54.7924L172.023 55.649ZM172.856 54.6862C173.198 54.4724 173.612 54.3516 174.131 54.3516V52.3516C173.282 52.3516 172.493 52.555 171.797 52.9895L172.856 54.6862ZM174.131 54.3516C174.842 54.3516 175.306 54.5452 175.63 54.8461L176.991 53.3805C176.221 52.6657 175.232 52.3516 174.131 52.3516V54.3516ZM175.633 54.8487C175.964 55.1537 176.2 55.6065 176.271 56.3109L178.261 56.111C178.152 55.0263 177.751 54.0807 176.988 53.3779L175.633 54.8487ZM177.266 55.2109H176.135V57.2109H177.266V55.2109ZM177.125 56.0687C177.011 55.2774 176.741 54.5259 176.177 54.0016L174.816 55.4672C174.907 55.5522 175.063 55.7851 175.145 56.3532L177.125 56.0687ZM176.181 54.0057C175.619 53.4772 174.888 53.2773 174.131 53.2773V55.2773C174.545 55.2773 174.725 55.3822 174.811 55.4631L176.181 54.0057ZM174.131 53.2773C173.128 53.2773 172.26 53.6672 171.646 54.4631L173.229 55.6853C173.435 55.4188 173.697 55.2773 174.131 55.2773V53.2773ZM171.643 54.4668C171.054 55.2371 170.828 56.2401 170.828 57.3418H172.828C172.828 56.4825 173.008 55.9738 173.232 55.6817L171.643 54.4668ZM170.828 57.3418V58.168H172.828V57.3418H170.828ZM170.828 58.168C170.828 59.2236 171.048 60.1851 171.592 60.9543L173.225 59.7996C172.995 59.4751 172.828 58.9639 172.828 58.168H170.828ZM171.592 60.9543C172.174 61.778 173.026 62.1973 174.031 62.1973V60.1973C173.646 60.1973 173.416 60.0697 173.225 59.7996L171.592 60.9543ZM174.031 62.1973C174.792 62.1973 175.536 62.0274 176.113 61.5384L174.82 60.0123C174.734 60.0858 174.521 60.1973 174.031 60.1973V62.1973ZM176.114 61.5378C176.716 61.0264 176.998 60.2501 177.123 59.4467L175.147 59.1393C175.053 59.7421 174.889 59.9541 174.82 60.013L176.114 61.5378ZM176.135 60.293H177.266V58.293H176.135V60.293ZM181.701 56.6328L181.537 57.6192L182.701 57.8133V56.6328H181.701ZM179.721 57.5L178.799 57.1133L178.721 57.2988V57.5H179.721ZM179.721 62V63H180.721V62H179.721ZM178.637 62H177.637V63H178.637V62ZM178.637 55.6602V54.6602H177.637V55.6602H178.637ZM179.691 55.6602L180.691 55.6362L180.668 54.6602H179.691V55.6602ZM179.709 56.3926L178.709 56.4166L178.789 59.7397L180.556 56.9242L179.709 56.3926ZM181.701 55.625H182.701V55.007L182.148 54.7306L181.701 55.625ZM181.866 55.6464C181.64 55.6088 181.406 55.5918 181.168 55.5918V57.5918C181.312 57.5918 181.434 57.6021 181.537 57.6192L181.866 55.6464ZM181.168 55.5918C180.671 55.5918 180.177 55.6984 179.741 55.9718C179.3 56.2488 178.993 56.6505 178.799 57.1133L180.643 57.8867C180.703 57.744 180.763 57.6916 180.804 57.6659C180.851 57.6366 180.954 57.5918 181.168 57.5918V55.5918ZM178.721 57.5V62H180.721V57.5H178.721ZM179.721 61H178.637V63H179.721V61ZM179.637 62V55.6602H177.637V62H179.637ZM178.637 56.6602H179.691V54.6602H178.637V56.6602ZM178.692 55.6841L178.709 56.4166L180.709 56.3686L180.691 55.6362L178.692 55.6841ZM180.556 56.9242C180.734 56.6403 180.923 56.543 181.221 56.543V54.543C180.214 54.543 179.395 55.012 178.862 55.861L180.556 56.9242ZM181.221 56.543C181.252 56.543 181.277 56.544 181.296 56.5454C181.315 56.5468 181.326 56.5484 181.331 56.5492C181.335 56.55 181.331 56.5495 181.318 56.5458C181.306 56.5421 181.284 56.5343 181.254 56.5194L182.148 54.7306C181.834 54.5732 181.49 54.543 181.221 54.543V56.543ZM180.701 55.625V56.6328H182.701V55.625H180.701ZM183.119 61.2734L182.395 61.9628L182.397 61.9653L183.119 61.2734ZM182.668 57.125L181.769 56.6863L181.768 56.6893L182.668 57.125ZM183.676 55.9648L184.218 56.805L184.22 56.8038L183.676 55.9648ZM187.689 59.1406V60.1406H188.689V59.1406H187.689ZM183.395 59.1406V58.1406H182.369L182.395 59.1656L183.395 59.1406ZM183.939 60.6582L183.196 61.3268L183.203 61.3346L183.939 60.6582ZM186.945 60.377L187.56 59.588L186.768 58.9712L186.154 59.7655L186.945 60.377ZM187.607 60.8926L188.446 61.438L188.947 60.668L188.222 60.1036L187.607 60.8926ZM183.98 56.9141L184.71 57.5983L184.714 57.5938L183.98 56.9141ZM183.43 58.25L182.437 58.1285L182.3 59.25H183.43V58.25ZM186.605 58.25V59.25H187.605V58.25H186.605ZM186.605 58.168H187.605V58.1396L187.604 58.1113L186.605 58.168ZM186.16 56.8906L185.406 57.5478L185.411 57.5526L186.16 56.8906ZM185.217 61.1172C184.599 61.1172 184.171 60.9259 183.841 60.5815L182.397 61.9653C183.145 62.746 184.116 63.1172 185.217 63.1172V61.1172ZM183.844 60.584C183.517 60.241 183.311 59.7513 183.311 59.0059H181.311C181.311 60.151 181.643 61.1731 182.395 61.9628L183.844 60.584ZM183.311 59.0059V58.8066H181.311V59.0059H183.311ZM183.311 58.8066C183.311 58.306 183.405 57.8981 183.568 57.5607L181.768 56.6893C181.455 57.3363 181.311 58.0495 181.311 58.8066H183.311ZM183.567 57.5637C183.735 57.2179 183.954 56.9757 184.218 56.805L183.133 55.1247C182.539 55.5087 182.085 56.0399 181.769 56.6863L183.567 57.5637ZM184.22 56.8038C184.496 56.6248 184.776 56.543 185.082 56.543V54.543C184.38 54.543 183.723 54.7424 183.132 55.1259L184.22 56.8038ZM185.082 56.543C185.664 56.543 186.003 56.7218 186.239 57.0014L187.769 55.7135C187.09 54.9071 186.148 54.543 185.082 54.543V56.543ZM186.239 57.0014C186.491 57.3008 186.689 57.8148 186.689 58.6895H188.689C188.689 57.5407 188.431 56.5 187.769 55.7135L186.239 57.0014ZM186.689 58.6895V59.1406H188.689V58.6895H186.689ZM187.689 58.1406H183.395V60.1406H187.689V58.1406ZM182.395 59.1656C182.415 59.9784 182.658 60.7287 183.196 61.3268L184.683 59.9897C184.525 59.8143 184.405 59.5528 184.394 59.1156L182.395 59.1656ZM183.203 61.3346C183.752 61.9322 184.468 62.2324 185.275 62.2324V60.2324C185.005 60.2324 184.83 60.1499 184.676 59.9818L183.203 61.3346ZM185.275 62.2324C185.794 62.2324 186.303 62.1261 186.755 61.86L185.741 60.1361C185.662 60.1825 185.523 60.2324 185.275 60.2324V62.2324ZM186.755 61.86C187.137 61.6355 187.464 61.3412 187.737 60.9884L186.154 59.7655C186.028 59.9283 185.891 60.0481 185.741 60.1361L186.755 61.86ZM186.331 61.1659L186.993 61.6816L188.222 60.1036L187.56 59.588L186.331 61.1659ZM186.769 60.3472C186.442 60.8507 185.978 61.1172 185.217 61.1172V63.1172C186.581 63.1172 187.711 62.5672 188.446 61.438L186.769 60.3472ZM185.082 55.4336C184.367 55.4336 183.734 55.7094 183.247 56.2343L184.714 57.5938C184.821 57.4781 184.922 57.4336 185.082 57.4336V55.4336ZM183.251 56.2298C182.767 56.7454 182.525 57.413 182.437 58.1285L184.422 58.3715C184.475 57.9385 184.6 57.7156 184.71 57.5983L183.251 56.2298ZM183.43 59.25H186.605V57.25H183.43V59.25ZM187.605 58.25V58.168H185.605V58.25H187.605ZM187.604 58.1113C187.565 57.4195 187.371 56.7508 186.91 56.2287L185.411 57.5526C185.481 57.632 185.584 57.8149 185.607 58.2246L187.604 58.1113ZM186.914 56.2335C186.434 55.6831 185.785 55.4336 185.082 55.4336V57.4336C185.285 57.4336 185.355 57.4887 185.406 57.5478L186.914 56.2335ZM192.863 62L191.969 62.4472L192.245 63H192.863V62ZM192.711 61.332L193.704 61.211L193.449 59.1235L191.991 60.6385L192.711 61.332ZM189.365 61.5898L188.699 62.3361L188.707 62.3429L189.365 61.5898ZM189.518 58.707L190.105 59.516L190.106 59.5152L189.518 58.707ZM192.693 58.1562V59.1562H193.693V58.1562H192.693ZM192.354 56.7559L191.646 57.463L191.653 57.4691L192.354 56.7559ZM189.986 57.418V58.418H190.986V57.418H189.986ZM188.896 57.418H187.896V58.418H188.896V57.418ZM189.23 56.5039L188.436 55.8972L188.434 55.8988L189.23 56.5039ZM190.145 55.8008L189.738 54.887L189.735 54.8885L190.145 55.8008ZM193.133 56.0938L192.469 56.8419L192.473 56.8454L193.133 56.0938ZM193.777 57.5996H194.777V57.5874L194.777 57.5752L193.777 57.5996ZM194 61.9062H195V61.6996L194.918 61.5098L194 61.9062ZM194 62V63H195V62H194ZM192.693 60.2246L193.593 60.6618L193.693 60.4548V60.2246H192.693ZM192.693 58.9238H193.693V57.9238H192.693V58.9238ZM193.758 61.5528C193.777 61.5923 193.771 61.5928 193.753 61.5169C193.738 61.4495 193.721 61.3498 193.704 61.211L191.718 61.4531C191.758 61.7772 191.822 62.1537 191.969 62.4472L193.758 61.5528ZM191.991 60.6385C191.667 60.9747 191.322 61.1172 190.906 61.1172V63.1172C191.889 63.1172 192.747 62.7362 193.431 62.0256L191.991 60.6385ZM190.906 61.1172C190.48 61.1172 190.213 61.0027 190.023 60.8368L188.707 62.3429C189.322 62.8801 190.083 63.1172 190.906 63.1172V61.1172ZM190.031 60.8436C189.849 60.6815 189.768 60.5057 189.768 60.2422H187.768C187.768 61.0647 188.084 61.7872 188.7 62.336L190.031 60.8436ZM189.768 60.2422C189.768 59.8766 189.884 59.6766 190.105 59.516L188.93 57.898C188.151 58.464 187.768 59.2875 187.768 60.2422H189.768ZM190.106 59.5152C190.377 59.3182 190.847 59.1562 191.639 59.1562V57.1562C190.61 57.1562 189.666 57.3615 188.929 57.8988L190.106 59.5152ZM191.639 59.1562H192.693V57.1562H191.639V59.1562ZM193.693 58.1562V57.6582H191.693V58.1562H193.693ZM193.693 57.6582C193.693 57.0667 193.509 56.489 193.054 56.0426L191.653 57.4691C191.661 57.4774 191.666 57.4847 191.673 57.5009C191.68 57.5204 191.693 57.5681 191.693 57.6582H193.693ZM193.061 56.0488C192.585 55.573 191.956 55.416 191.352 55.416V57.416C191.489 57.416 191.571 57.434 191.612 57.448C191.648 57.4604 191.652 57.4688 191.646 57.463L193.061 56.0488ZM191.352 55.416C190.79 55.416 190.245 55.5608 189.781 55.9076L190.977 57.5104C191.036 57.4665 191.139 57.416 191.352 57.416V55.416ZM189.781 55.9076C189.317 56.2537 188.986 56.7666 188.986 57.418H190.986C190.986 57.428 190.985 57.4444 190.98 57.4645C190.975 57.4848 190.967 57.5028 190.959 57.5171C190.943 57.5462 190.937 57.5406 190.977 57.5104L189.781 55.9076ZM189.986 56.418H188.896V58.418H189.986V56.418ZM189.896 57.418C189.896 57.3545 189.914 57.2575 190.027 57.109L188.434 55.8988C188.102 56.3363 187.896 56.8487 187.896 57.418H189.896ZM190.025 57.1106C190.139 56.9617 190.304 56.8253 190.554 56.7131L189.735 54.8885C189.219 55.12 188.775 55.4523 188.436 55.8972L190.025 57.1106ZM190.551 56.7146C190.798 56.6045 191.082 56.543 191.416 56.543V54.543C190.828 54.543 190.264 54.6534 189.738 54.887L190.551 56.7146ZM191.416 56.543C191.982 56.543 192.29 56.683 192.469 56.8419L193.796 55.3456C193.147 54.7701 192.311 54.543 191.416 54.543V56.543ZM192.473 56.8454C192.643 56.9939 192.768 57.2127 192.778 57.624L194.777 57.5752C194.756 56.7052 194.451 55.9202 193.792 55.3421L192.473 56.8454ZM192.777 57.5996V60.5176H194.777V57.5996H192.777ZM192.777 60.5176C192.777 61.1683 192.858 61.7838 193.082 62.3027L194.918 61.5098C194.845 61.3412 194.777 61.0309 194.777 60.5176H192.777ZM193 61.9062V62H195V61.9062H193ZM194 61H192.863V63H194V61ZM191.064 62.1738C191.586 62.1738 192.08 62.0366 192.531 61.7763L191.532 60.044C191.373 60.1353 191.223 60.1738 191.064 60.1738V62.1738ZM192.531 61.7763C192.986 61.5136 193.358 61.1447 193.593 60.6618L191.794 59.7874C191.755 59.867 191.686 59.9551 191.532 60.044L192.531 61.7763ZM193.693 60.2246V58.9238H191.693V60.2246H193.693ZM192.693 57.9238H191.844V59.9238H192.693V57.9238ZM191.844 57.9238C191.115 57.9238 190.404 58.0247 189.844 58.3523C189.202 58.7283 188.852 59.3505 188.852 60.0898H190.852C190.852 60.0412 190.861 60.0471 190.845 60.0746C190.829 60.1026 190.818 60.1001 190.855 60.0784C190.959 60.0173 191.244 59.9238 191.844 59.9238V57.9238ZM188.852 60.0898C188.852 60.6762 189.06 61.2403 189.546 61.6506L190.837 60.1228C190.836 60.1224 190.84 60.1256 190.845 60.1325C190.85 60.1396 190.854 60.1466 190.856 60.1517C190.858 60.1565 190.857 60.1558 190.856 60.1469C190.854 60.1377 190.852 60.1194 190.852 60.0898H188.852ZM189.546 61.6506C189.987 62.0234 190.522 62.1738 191.064 62.1738V60.1738C190.896 60.1738 190.849 60.1329 190.837 60.1228L189.546 61.6506ZM196.947 54.125H197.947V53.125H196.947V54.125ZM196.947 55.6602H195.947V56.6602H196.947V55.6602ZM198.131 55.6602H199.131V54.6602H198.131V55.6602ZM198.131 56.498V57.498H199.131V56.498H198.131ZM196.947 56.498V55.498H195.947V56.498H196.947ZM197.105 61.0039L196.332 61.6371L196.336 61.643L196.341 61.6488L197.105 61.0039ZM198.16 61.1211H199.16V59.8841L197.951 60.1433L198.16 61.1211ZM198.16 62L198.424 62.9645L199.16 62.7629V62H198.16ZM195.863 56.498H196.863V55.498H195.863V56.498ZM194.709 56.498H193.709V57.498H194.709V56.498ZM194.709 55.6602V54.6602H193.709V55.6602H194.709ZM195.863 55.6602V56.6602H196.863V55.6602H195.863ZM195.863 54.125V53.125H194.863V54.125H195.863ZM195.947 54.125V55.6602H197.947V54.125H195.947ZM196.947 56.6602H198.131V54.6602H196.947V56.6602ZM197.131 55.6602V56.498H199.131V55.6602H197.131ZM198.131 55.498H196.947V57.498H198.131V55.498ZM195.947 56.498V60.4297H197.947V56.498H195.947ZM195.947 60.4297C195.947 60.7989 196.02 61.2569 196.332 61.6371L197.879 60.3707C197.93 60.4328 197.947 60.4847 197.951 60.4981C197.954 60.509 197.947 60.4905 197.947 60.4297H195.947ZM196.341 61.6488C196.721 62.0993 197.259 62.1914 197.645 62.1914V60.1914C197.594 60.1914 197.603 60.1846 197.648 60.2C197.699 60.218 197.789 60.2633 197.87 60.359L196.341 61.6488ZM197.645 62.1914C197.874 62.1914 198.127 62.1509 198.37 62.0989L197.951 60.1433C197.756 60.185 197.665 60.1914 197.645 60.1914V62.1914ZM197.16 61.1211V62H199.16V61.1211H197.16ZM197.896 61.0355C197.689 61.0923 197.5 61.1172 197.328 61.1172V63.1172C197.695 63.1172 198.061 63.0639 198.424 62.9645L197.896 61.0355ZM197.328 61.1172C197.054 61.1172 197.006 61.0434 196.998 61.0345L195.467 62.3209C195.951 62.898 196.633 63.1172 197.328 63.1172V61.1172ZM196.998 61.0345C196.955 60.9831 196.863 60.8285 196.863 60.4297H194.863C194.863 61.109 195.018 61.7864 195.467 62.3209L196.998 61.0345ZM196.863 60.4297V56.498H194.863V60.4297H196.863ZM195.863 55.498H194.709V57.498H195.863V55.498ZM195.709 56.498V55.6602H193.709V56.498H195.709ZM194.709 56.6602H195.863V54.6602H194.709V56.6602ZM196.863 55.6602V54.125H194.863V55.6602H196.863ZM195.863 55.125H196.947V53.125H195.863V55.125ZM199.361 57.0957L198.465 56.6513L198.463 56.657L199.361 57.0957ZM200.381 55.9473L199.856 55.0959L199.853 55.098L200.381 55.9473ZM203.967 56.4395L203.219 57.1038L203.222 57.1065L203.967 56.4395ZM204.412 60.5645L203.512 60.1287L203.511 60.1317L204.412 60.5645ZM203.398 61.707L202.872 60.8569L202.868 60.859L203.398 61.707ZM199.795 61.2207L199.048 61.8851L199.05 61.8878L199.795 61.2207ZM200.574 60.5938L199.779 61.1996L199.782 61.2042L200.574 60.5938ZM203.199 60.5879L203.997 61.1902L204 61.1867L203.199 60.5879ZM203.188 57.084L202.39 57.6875L202.396 57.6954L203.188 57.084ZM199.998 58.7715C199.998 58.2833 200.092 57.8776 200.26 57.5344L198.463 56.657C198.146 57.3059 197.998 58.0175 197.998 58.7715H199.998ZM200.257 57.5401C200.428 57.1959 200.646 56.9597 200.909 56.7966L199.853 55.098C199.248 55.4739 198.787 56.0033 198.465 56.6513L200.257 57.5401ZM200.905 56.7987C201.172 56.6347 201.485 56.543 201.875 56.543V54.543C201.148 54.543 200.465 54.7208 199.856 55.0959L200.905 56.7987ZM201.875 56.543C202.478 56.543 202.894 56.7381 203.219 57.1038L204.714 55.7751C203.977 54.9455 202.998 54.543 201.875 54.543V56.543ZM203.222 57.1065C203.556 57.4801 203.77 58.0174 203.77 58.8242H205.77C205.77 57.6466 205.448 56.5941 204.712 55.7724L203.222 57.1065ZM203.77 58.8242V58.9004H205.77V58.8242H203.77ZM203.77 58.9004C203.77 59.3862 203.677 59.7889 203.512 60.1287L205.312 61.0002C205.624 60.3556 205.77 59.649 205.77 58.9004H203.77ZM203.511 60.1317C203.355 60.4558 203.144 60.6885 202.872 60.8569L203.925 62.5571C204.536 62.1787 205 61.6497 205.314 60.9972L203.511 60.1317ZM202.868 60.859C202.606 61.0228 202.29 61.1172 201.887 61.1172V63.1172C202.624 63.1172 203.316 62.9381 203.928 62.555L202.868 60.859ZM201.887 61.1172C201.289 61.1172 200.871 60.923 200.54 60.5536L199.05 61.8878C199.789 62.7137 200.766 63.1172 201.887 63.1172V61.1172ZM200.542 60.5563C200.209 60.1815 199.998 59.6461 199.998 58.8477H197.998C197.998 60.0179 198.318 61.0646 199.048 61.8851L200.542 60.5563ZM199.998 58.8477V58.7715H197.998V58.8477H199.998ZM199.088 58.9004C199.088 59.7537 199.285 60.552 199.779 61.1996L201.37 59.9879C201.215 59.784 201.088 59.4533 201.088 58.9004H199.088ZM199.782 61.2042C200.303 61.8806 201.036 62.2324 201.887 62.2324V60.2324C201.644 60.2324 201.501 60.1585 201.366 59.9833L199.782 61.2042ZM201.887 62.2324C202.743 62.2324 203.479 61.8771 203.997 61.1902L202.401 59.9856C202.271 60.1581 202.132 60.2324 201.887 60.2324V62.2324ZM204 61.1867C204.499 60.5194 204.686 59.6738 204.686 58.7715H202.686C202.686 59.4239 202.548 59.7892 202.398 59.989L204 61.1867ZM204.686 58.7715C204.686 57.9176 204.48 57.1212 203.979 56.4725L202.396 57.6954C202.559 57.9061 202.686 58.2347 202.686 58.7715H204.686ZM203.985 56.4805C203.466 55.7955 202.733 55.4336 201.875 55.4336V57.4336C202.111 57.4336 202.252 57.5053 202.39 57.6874L203.985 56.4805ZM201.875 55.4336C201.028 55.4336 200.304 55.7917 199.788 56.4619L201.372 57.6827C201.512 57.5013 201.652 57.4336 201.875 57.4336V55.4336ZM199.788 56.4619C199.274 57.1284 199.088 57.9873 199.088 58.9004H201.088C201.088 58.2275 201.23 57.8677 201.372 57.6827L199.788 56.4619ZM209.193 56.6328L209.029 57.6192L210.193 57.8133V56.6328H209.193ZM207.213 57.5L206.291 57.1133L206.213 57.2988V57.5H207.213ZM207.213 62V63H208.213V62H207.213ZM206.129 62H205.129V63H206.129V62ZM206.129 55.6602V54.6602H205.129V55.6602H206.129ZM207.184 55.6602L208.183 55.6362L208.16 54.6602H207.184V55.6602ZM207.201 56.3926L206.201 56.4166L206.281 59.7397L208.048 56.9242L207.201 56.3926ZM209.193 55.625H210.193V55.007L209.641 54.7306L209.193 55.625ZM209.358 55.6464C209.132 55.6088 208.899 55.5918 208.66 55.5918V57.5918C208.805 57.5918 208.927 57.6021 209.029 57.6192L209.358 55.6464ZM208.66 55.5918C208.163 55.5918 207.669 55.6984 207.234 55.9718C206.792 56.2488 206.485 56.6505 206.291 57.1133L208.135 57.8867C208.195 57.744 208.256 57.6916 208.297 57.6659C208.343 57.6366 208.446 57.5918 208.66 57.5918V55.5918ZM206.213 57.5V62H208.213V57.5H206.213ZM207.213 61H206.129V63H207.213V61ZM207.129 62V55.6602H205.129V62H207.129ZM206.129 56.6602H207.184V54.6602H206.129V56.6602ZM206.184 55.6841L206.201 56.4166L208.201 56.3686L208.183 55.6362L206.184 55.6841ZM208.048 56.9242C208.226 56.6403 208.415 56.543 208.713 56.543V54.543C207.706 54.543 206.887 55.012 206.354 55.861L208.048 56.9242ZM208.713 56.543C208.744 56.543 208.769 56.544 208.788 56.5454C208.807 56.5468 208.818 56.5484 208.823 56.5492C208.828 56.55 208.823 56.5495 208.811 56.5458C208.799 56.5421 208.776 56.5343 208.746 56.5194L209.641 54.7306C209.326 54.5732 208.982 54.543 208.713 54.543V56.543ZM208.193 55.625V56.6328H210.193V55.625H208.193ZM210.324 60.9629L209.583 60.2914L209.577 60.2978L209.572 60.3044L210.324 60.9629ZM211.332 60.9629L210.591 61.6344L210.597 61.6407L210.602 61.6468L211.332 60.9629ZM211.332 61.8828L210.613 61.1874L210.608 61.1935L210.602 61.1997L211.332 61.8828ZM210.324 61.8828L209.582 62.5531L209.588 62.5596L209.594 62.566L210.324 61.8828ZM210.33 55.7891L209.589 55.1175L209.583 55.124L209.578 55.1306L210.33 55.7891ZM211.338 55.7891L210.597 56.4606L210.603 56.4668L210.608 56.473L211.338 55.7891ZM211.338 56.709L210.619 56.0136L210.613 56.0196L210.608 56.0258L211.338 56.709ZM210.33 56.709L209.588 57.3793L209.594 57.3858L209.6 57.3921L210.33 56.709ZM211.16 61.4316C211.16 61.4356 211.159 61.4631 211.145 61.5042C211.13 61.5471 211.106 61.5881 211.077 61.6214L209.572 60.3044C209.282 60.6353 209.16 61.0353 209.16 61.4316H211.16ZM211.065 61.6344C211.008 61.698 210.94 61.7385 210.884 61.7595C210.833 61.7785 210.808 61.7754 210.828 61.7754V59.7754C210.418 59.7754 209.942 59.8958 209.583 60.2914L211.065 61.6344ZM210.828 61.7754C210.848 61.7754 210.823 61.7785 210.772 61.7595C210.716 61.7385 210.649 61.698 210.591 61.6344L212.073 60.2914C211.715 59.8958 211.238 59.7754 210.828 59.7754V61.7754ZM210.602 61.6468C210.573 61.6157 210.546 61.5737 210.528 61.525C210.51 61.4778 210.508 61.4431 210.508 61.4316H212.508C212.508 61.0162 212.37 60.6075 212.062 60.2789L210.602 61.6468ZM210.508 61.4316C210.508 61.4113 210.511 61.3691 210.532 61.3162C210.553 61.2621 210.584 61.2181 210.613 61.1874L212.051 62.5782C212.361 62.2574 212.508 61.8519 212.508 61.4316H210.508ZM210.602 61.1997C210.661 61.1358 210.729 61.0975 210.782 61.0783C210.83 61.061 210.851 61.0645 210.828 61.0645V63.0645C211.229 63.0645 211.702 62.9515 212.062 62.566L210.602 61.1997ZM210.828 61.0645C210.805 61.0645 210.826 61.061 210.874 61.0783C210.928 61.0975 210.995 61.1358 211.054 61.1997L209.594 62.566C209.955 62.9515 210.427 63.0645 210.828 63.0645V61.0645ZM211.066 61.2125C211.096 61.2458 211.123 61.289 211.141 61.3375C211.158 61.3844 211.16 61.4191 211.16 61.4316H209.16C209.16 61.8319 209.289 62.2291 209.582 62.5531L211.066 61.2125ZM211.166 56.2578C211.166 56.2618 211.165 56.2892 211.151 56.3304C211.136 56.3732 211.112 56.4142 211.083 56.4476L209.578 55.1306C209.288 55.4615 209.166 55.8615 209.166 56.2578H211.166ZM211.071 56.4606C211.013 56.5242 210.946 56.5646 210.89 56.5857C210.839 56.6046 210.814 56.6016 210.834 56.6016V54.6016C210.424 54.6016 209.948 54.722 209.589 55.1175L211.071 56.4606ZM210.834 56.6016C210.854 56.6016 210.829 56.6046 210.778 56.5857C210.722 56.5646 210.655 56.5242 210.597 56.4606L212.079 55.1175C211.72 54.722 211.244 54.6016 210.834 54.6016V56.6016ZM210.608 56.473C210.579 56.4419 210.552 56.3998 210.533 56.3511C210.516 56.304 210.514 56.2693 210.514 56.2578H212.514C212.514 55.8424 212.375 55.4337 212.067 55.1051L210.608 56.473ZM210.514 56.2578C210.514 56.2375 210.517 56.1953 210.538 56.1423C210.559 56.0882 210.59 56.0443 210.619 56.0136L212.056 57.4044C212.367 57.0836 212.514 56.6781 212.514 56.2578H210.514ZM210.608 56.0258C210.667 55.962 210.735 55.9237 210.788 55.9045C210.836 55.8872 210.857 55.8906 210.834 55.8906V57.8906C211.235 57.8906 211.707 57.7777 212.068 57.3921L210.608 56.0258ZM210.834 55.8906C210.811 55.8906 210.832 55.8872 210.88 55.9045C210.933 55.9237 211.001 55.962 211.06 56.0258L209.6 57.3921C209.96 57.7777 210.433 57.8906 210.834 57.8906V55.8906ZM211.072 56.0387C211.102 56.072 211.129 56.1152 211.147 56.1636C211.164 56.2106 211.166 56.2453 211.166 56.2578H209.166C209.166 56.6581 209.295 57.0552 209.588 57.3793L211.072 56.0387Z" fill="black"/>
</g>
</g>
</g>
<defs>
<filter id="filter0_if" x="-0.04" y="-0.04" width="280.24" height="86.24" filterUnits="userSpaceOnUse" color-interpolation-filters="sRGB">
<feFlood flood-opacity="0" result="BackgroundImageFix"/>
<feBlend mode="normal" in="SourceGraphic" in2="BackgroundImageFix" result="shape"/>
<feColorMatrix in="SourceAlpha" type="matrix" values="0 0 0 0 0 0 0 0 0 0 0 0 0 0 0 0 0 0 127 0" result="hardAlpha"/>
<feOffset dx="0.2" dy="0.2"/>
<feGaussianBlur stdDeviation="0.25"/>
<feComposite in2="hardAlpha" operator="arithmetic" k2="-1" k3="1"/>
<feColorMatrix type="matrix" values="0 0 0 0 0 0 0 0 0 0 0 0 0 0 0 0 0 0 0.5 0"/>
<feBlend mode="normal" in2="shape" result="effect1_innerShadow"/>
<feGaussianBlur stdDeviation="0.02" result="effect2_foregroundBlur"/>
</filter>
<clipPath id="clip0">
<rect width="280" height="86" fill="white"/>
</clipPath>
</defs>
</svg>
